<?xml version="1.0" encoding="UTF-8"?>
<svg width="379px" height="368px" viewBox="0 0 379 368" version="1.1" xmlns="http://www.w3.org/2000/svg" xmlns:xlink="http://www.w3.org/1999/xlink">
    <!-- Generator: Sketch 49.3 (51167) - http://www.bohemiancoding.com/sketch -->
    <title>awesome</title>
    <desc>Created with Sketch.</desc>
    <defs></defs>
    <g id="Page-1" stroke="none" stroke-width="1" fill="none" fill-rule="evenodd">
        <g id="awesome" fill="#21C7B4" fill-rule="nonzero">
            <path d="M41.062,43.591 L14.932,43.591 L10.649,53.096 L0.44,53.096 L22.857,2.692 L33.138,2.692 L55.555,53.096 L45.275,53.096 L41.062,43.591 Z M27.998,13.276 L18.717,34.734 L37.279,34.734 L27.998,13.276 Z M106.382,53.096 L98.386,53.096 L92.175,37.254 L86.892,21.341 L81.681,37.399 L75.612,53.096 L67.616,53.096 L49.267,2.692 L59.834,2.692 L71.614,39.055 L83.751,2.692 L89.89,2.692 L102.384,39.055 L113.807,2.692 L124.373,2.692 L106.382,53.096 Z M167.416,53.096 L130.007,53.096 L130.007,2.692 L167.416,2.692 L167.416,11.909 L139.358,11.909 L139.358,23.502 L166.417,23.502 L166.417,32.358 L139.358,32.358 L139.358,43.736 L167.416,43.736 L167.416,53.096 Z M207.034,14.86 C205.32,11.98 200.608,9.244 195.183,9.244 C188.186,9.244 184.83,12.196 184.83,15.94 C184.83,20.333 189.97,21.556 195.967,22.277 C206.392,23.573 216.101,26.309 216.101,38.334 C216.101,49.567 206.247,54.392 195.112,54.392 C184.903,54.392 177.05,51.224 173.337,42.007 L181.191,37.903 C183.403,43.448 189.186,45.896 195.255,45.896 C201.181,45.896 206.749,43.807 206.749,38.334 C206.749,33.582 201.823,31.638 195.184,30.918 C184.975,29.693 175.55,26.957 175.55,15.652 C175.55,5.283 185.689,1.035 194.897,0.963 C202.68,0.963 210.748,3.195 214.532,10.972 L207.034,14.86 Z M272.495,28.182 C272.353,41.215 264.43,54.248 246.866,54.248 C229.304,54.248 221.164,41.503 221.164,28.254 C221.164,15.005 229.589,1.684 246.866,1.684 C264.071,1.684 272.638,15.005 272.495,28.182 Z M230.446,28.397 C230.66,36.678 235.086,45.535 246.866,45.535 C258.646,45.535 263.073,36.606 263.216,28.325 C263.359,19.829 258.647,10.324 246.866,10.324 C235.085,10.324 230.231,19.9 230.446,28.397 Z M322.966,16.589 L306.688,38.479 L304.832,38.479 L288.912,16.517 L288.912,53.168 L279.488,53.168 L279.488,2.764 L290.34,2.764 L305.975,24.438 L321.61,2.764 L332.391,2.764 L332.391,53.168 L322.967,53.168 L322.967,16.589 L322.966,16.589 Z M378.504,53.096 L341.093,53.096 L341.093,2.692 L378.504,2.692 L378.504,11.909 L350.446,11.909 L350.446,23.502 L377.504,23.502 L377.504,32.358 L350.446,32.358 L350.446,43.736 L378.504,43.736 L378.504,53.096 Z" id="Shape"></path>
            <g id="Logo" transform="translate(39.000000, 71.000000)">
                <path d="M58.6594937,123.88481 C59.0620253,124.188608 59.7607595,124.386076 59.0620253,124.986076 C58.5607595,125.68481 57.9607595,126.28481 57.5620253,127.086076 C57.1632911,127.788608 56.8632911,127.986076 56.2632911,127.488608 C57.0607595,126.186076 57.8582278,124.982278 58.6556962,123.881013 L58.6594937,123.88481 Z M259.526582,228.759494 C259.526582,229.055696 259.625316,229.253165 259.625316,229.556962 C259.826582,229.158228 259.826582,228.956962 259.929114,228.759494 L259.526582,228.759494 Z M259.526582,229.655696 L259.526582,229.556962 L259.526582,229.655696 Z M239.141772,268.682278 L221.749367,172.218987 C221.453165,172.124051 221.05443,171.926582 220.351899,171.725316 C220.553165,172.124051 220.655696,172.424051 220.75443,172.724051 C221.248101,172.625316 221.453165,172.625316 221.650633,172.526582 C221.650633,172.427848 221.650633,172.329114 221.753165,172.222785 L239.14557,268.693671 L239.141772,268.682278 Z M221.153165,150.505063 C221.05443,150.801266 221.05443,151.105063 221.05443,151.405063 C221.05443,151.101266 221.05443,150.797468 221.160759,150.501266 L221.153165,150.505063 Z M221.251899,152.502532 C221.153165,152.502532 221.153165,152.502532 221.05443,152.396203 L221.05443,152.494937 C221.160759,152.593671 221.160759,152.593671 221.259494,152.494937 L221.251899,152.502532 Z M221.05443,153.3 L221.05443,152.597468 C220.762025,152.696203 220.462025,152.696203 220.059494,152.798734 C220.560759,152.988608 221.062025,153.094937 221.062025,153.292405 L221.05443,153.3 Z" id="Shape"></path>
                <path d="M298.898734,128.988608 C298.701266,125.08481 298.602532,121.181013 298.2,117.281013 C297.501266,111.975949 296.802532,106.572152 295.602532,101.36962 C294.702532,97.0670886 293.210127,92.9620253 291.706329,88.8607595 C289.807595,84.056962 287.908861,79.1544304 285.508861,74.5518987 C281.612658,67.1468354 276.516456,60.5392405 271.818987,53.635443 C268.712658,49.2303797 264.717722,45.6303797 261.717722,41.1265823 C260.020253,38.5253165 257.521519,36.3265823 255.022785,34.3291139 C251.024051,31.1202532 246.827848,28.2151899 242.631646,25.4164557 C239.464781,23.1958367 236.195355,21.1252004 232.834177,19.2113924 C230.137975,17.7037975 227.240506,16.5037975 224.441772,15.2012658 C221.244304,13.7012658 218.14557,11.8974684 214.549367,11.1987342 C213.64557,11.0088608 212.848101,10.7050633 211.948101,10.4012658 C209.650633,9.60379747 207.451899,8.70379747 205.150633,8.00126582 C201.656962,6.9 198.258228,5.60126582 194.658228,4.69746835 C191.172152,3.79746835 187.572152,3.20126582 183.972152,2.69620253 C179.977215,2.10759494 175.883544,1.89873418 171.881013,1.50759494 C169.326211,1.17750579 166.75981,0.944426898 164.187342,0.808860759 C160.389873,0.607594937 156.493671,0.607594937 152.696203,0.508860759 C150.797468,0.406329114 148.8,0.205063291 146.901266,0.307594937 C144.003797,0.406329114 141.106329,0.706329114 138.205063,1.10506329 C135.410127,1.40886076 132.611392,1.90253165 129.91519,2.30886076 C126.622785,2.70759494 123.326582,2.90886076 120.026582,3.31139241 C116.927848,3.71392405 113.73038,4.31392405 110.635443,4.81518987 C109.534177,5.0164557 108.432911,5.41518987 107.331646,5.61265823 C104.939241,6.11392405 102.440506,6.31518987 100.040506,7.1164557 C95.7493671,8.42278481 91.4468354,9.92658228 87.2506329,11.521519 C83.3506329,13.1240506 79.5531646,14.8253165 75.8582278,16.8265823 C72.0607595,18.9227848 68.4607595,21.421519 64.864557,23.8291139 C61.4104057,26.1405354 58.0411085,28.5763093 54.7632911,31.1316456 C51.5734177,33.6379747 48.5734177,36.4367089 45.6721519,39.2392405 C44.0772152,40.8341772 42.7746835,42.7405063 41.2746835,44.5405063 C38.7797468,47.4455696 36.2810127,50.2443038 33.8810127,53.2481013 C31.8911392,55.7544304 30.0835443,58.3518987 28.1848101,60.956962 C24.7936709,65.5518987 21.8962025,70.4582278 19.2,75.364557 C18.0987342,77.3658228 17.1,79.3670886 16.1012658,81.364557 C14.6012658,84.364557 13.0025316,87.2696203 11.6050633,90.3721519 C10.6025316,92.4759494 9.80506329,94.7772152 9.20506329,97.078481 C7.81139241,101.98481 6.41012658,106.989873 5.11139241,111.888608 C3.91139241,116.293671 3.61139241,120.896203 3.5164557,125.4 C3.41392405,129.402532 3.81265823,133.306329 4.21139241,137.308861 C4.31392405,138.311392 3.71772152,139.511392 4.91012658,140.308861 C4.51139241,141.410127 4.81139241,142.017722 5.40379747,142.207595 C4.71265823,143.308861 5.70759494,144.01519 5.31265823,145.017722 C5.21012658,145.21519 5.6164557,145.613924 5.80632911,145.913924 C5.80632911,146.217722 5.71139241,146.616456 5.80632911,146.916456 C5.91265823,147.816456 6.31139241,148.716456 6.31139241,149.718987 C6.31139241,150.417722 6.90759494,151.218987 7.10886076,151.921519 C7.20759494,152.217722 7.10886076,152.718987 6.90759494,152.920253 C6.30759494,153.618987 6.40632911,154.218987 7.30632911,154.621519 C7.81139241,155.920253 7.61012658,156.520253 7.51139241,157.127848 C7.70886076,158.024051 7.40886076,158.324051 7.51139241,158.525316 C8.30886076,160.127848 8.61265823,161.927848 8.70759494,163.727848 C8.70759494,164.13038 8.90886076,164.532911 9.11012658,165.03038 C9.20886076,165.03038 9.11012658,166.929114 9.11012658,166.929114 C9.60379747,166.632911 10.0101266,166.534177 10.5075949,166.332911 C10.8113924,167.631646 11.1075949,168.839241 11.5063291,169.940506 C12.0075949,170.737975 12.0075949,171.132911 11.8101266,171.231646 C12.2088608,173.031646 12.4063291,174.732911 13.1012658,176.434177 C13.1012658,174.535443 12.9113924,172.636709 12.6075949,170.832911 C14.0050633,171.334177 15.2050633,171.831646 16.0063291,171.831646 C16.1088608,171.527848 16.2075949,171.132911 16.3101266,170.931646 C15.7101266,170.335443 15.2088608,169.435443 14.6088608,168.835443 C14.8101266,169.632911 14.6088608,169.936709 14.6088608,170.240506 C14.2101266,170.035443 13.7088608,169.834177 13.2113924,169.632911 C13.6101266,169.139241 14.0088608,168.634177 14.6088608,168.037975 C14.6088608,167.134177 14.1151899,166.329114 12.7101266,166.431646 C13.3101266,166.234177 13.9101266,165.937975 14.6088608,165.732911 C15.7101266,165.136709 14.5101266,164.035443 14.5101266,162.634177 C14.6088608,160.936709 13.6101266,159.235443 13.3101266,157.431646 C12.8088608,154.632911 12.9113924,150.429114 12.6113924,147.626582 C12.0113924,147.125316 11.5101266,148.424051 11.4113924,148.526582 C11.7151899,150.926582 12.0113924,153.326582 12.2088608,155.73038 C11.6126582,153.729114 11.2101266,151.526582 10.7126582,149.122785 C10.6101266,149.825316 10.5113924,150.125316 10.5113924,150.527848 C10.0177215,151.021519 10.4126582,151.629114 10.7126582,152.327848 C10.0139241,152.024051 9.21265823,152.13038 9.21265823,152.13038 L9.21265823,154.932911 C8.21772152,153.93038 7.92151899,153.132911 7.4164557,152.426582 C7.21898734,151.629114 7.11265823,150.831646 6.92278481,150.034177 C7.11265823,149.529114 6.92278481,149.229114 6.92278481,148.932911 C6.80546916,148.132487 6.70418306,147.329794 6.61898734,146.525316 C6.71772152,146.426582 6.52025316,144.93038 6.52025316,144.93038 C7.31772152,145.025316 7.82278481,145.120253 8.32025316,145.120253 C7.32151899,143.829114 8.0164557,143.024051 8.42278481,142.222785 C8.62405063,141.820253 9.32278481,141.729114 9.52405063,141.318987 C10.321519,139.818987 11.6240506,138.622785 11.6240506,136.716456 C11.6240506,135.816456 11.9278481,134.817722 12.0227848,133.913924 C12.2240506,132.212658 12.421519,130.511392 12.5164557,128.810127 C12.721519,126.607595 12.5164557,124.405063 13.021519,122.305063 C13.8265823,118.811392 14.8253165,115.306329 15.9227848,111.801266 C16.7202532,109.294937 17.6240506,106.902532 18.6189873,104.396203 C20.1189873,100.492405 21.5202532,96.5886076 23.4189873,92.8898734 C26.1151899,87.4822785 29.2139241,82.2797468 32.2139241,76.978481 C34.1126582,73.6746835 36.1101266,70.5721519 38.2139241,67.3708861 C40.2075949,64.2683544 42.2012658,61.0670886 44.5063291,58.1620253 C47.6705939,54.0642984 51.2182869,50.2775494 55.1012658,46.8531646 C59.1,43.2531646 62.8974684,39.5506329 67.1924051,36.2468354 C72.7824989,31.936942 78.7350857,28.1189008 84.9835443,24.835443 C90.0835443,22.1392405 95.3772152,20.0278481 100.674684,18.0265823 C104.073418,16.7278481 107.768354,16.1278481 111.26962,15.0265823 C115.264557,13.7240506 119.263291,13.1278481 123.459494,13.0253165 C126.155696,12.9227848 128.756962,12.6227848 131.453165,12.3227848 C133.853165,12.1329114 136.249367,11.9278481 138.850633,11.6278481 C138.546835,12.0265823 138.448101,12.2278481 138.349367,12.4253165 C137.255696,14.0278481 136.055696,15.6303797 134.95443,17.2291139 C134.05443,18.5316456 133.055696,19.9329114 132.155696,21.2316456 C130.553165,23.3392405 128.851899,25.4392405 127.355696,27.6417722 C125.058228,30.9455696 122.958228,34.3481013 120.558228,37.6481013 C118.165823,40.8493671 115.564557,43.8531646 113.065823,46.9518987 C109.76962,51.2582278 106.670886,55.6594937 103.374684,59.9620253 C100.374684,64.0632911 97.1848101,67.9746835 94.2835443,72.0759494 C91.6860759,75.6721519 89.3848101,79.4810127 86.8860759,83.1759494 C83.1911392,88.6822785 79.4924051,94.0822785 75.7974684,99.5886076 C72.8967352,103.779877 69.9650092,107.949611 67.0025316,112.097468 C66.8012658,112.401266 66.5012658,112.492405 66.2050633,112.693671 C65.4075949,113.992405 65.4075949,114.694937 65.1037975,115.294937 C64.3063291,116.794937 63.5088608,118.294937 62.6050633,119.7 C62.1037975,120.497468 61.4050633,121.196203 60.8050633,121.997468 C60.7063291,120.797468 62.4,120.197468 61.6025316,118.693671 C61.1088608,119.498734 60.6037975,120.197468 60.1063291,120.998734 L58.9063291,123.391139 C59.3050633,123.694937 60.0075949,123.896203 59.3050633,124.492405 C59.0012658,124.997468 58.7050633,125.593671 58.4050633,126.098734 C58.8376184,125.844428 59.2126293,125.503039 59.5063291,125.096203 C59.5063291,126.197468 58.9063291,127.093671 58.4050633,127.993671 C58.0063291,128.791139 57.0075949,129.398734 56.3088608,129.994937 C56.4075949,130.097468 57.1063291,130.397468 57.2088608,130.496203 C58.1088608,130.192405 58.4088608,129.698734 58.5113924,129.994937 C58.8151899,129.596203 59.1113924,129.296203 59.2101266,128.996203 C59.6050633,127.993671 60.2050633,127.196203 61.2037975,126.793671 C61.6063291,126.592405 61.9025316,126.292405 62.2025316,125.996203 C65.2025316,122.889873 68.3012658,119.889873 70.9974684,116.586076 C75.1974684,111.478481 78.9949367,106.181013 82.9974684,100.978481 C84.6911392,98.7759494 86.6924051,96.5734177 88.4886076,94.4696203 C88.7848101,96.7708861 88.5873418,98.9696203 88.4886076,101.077215 C88.1848101,104.775949 87.9873418,108.482278 87.6911392,112.279747 C87.5886076,113.779747 87.6911392,115.279747 87.5886076,116.783544 C87.5886076,117.182278 87.2848101,117.482278 87.2848101,117.88481 C87.2848101,118.883544 87.5886076,119.98481 87.5886076,120.987342 C87.2848101,124.689873 86.8822785,128.289873 86.5822785,131.992405 C86.4797468,132.789873 86.878481,133.594937 87.0759494,134.297468 C86.5822785,139.697468 87.6835443,145.405063 86.7797468,151.108861 C87.478481,150.007595 87.6797468,149.308861 87.6797468,148.610127 C87.7746835,148.010127 87.6797468,147.410127 87.6797468,146.711392 L87.6797468,145.708861 C87.7746835,143.905063 88.1734177,142.006329 87.9759494,140.202532 C87.7746835,138.201266 87.7746835,136.302532 88.1772152,134.4 C88.378481,133.602532 88.078481,132.6 88.5797468,131.597468 L88.5797468,133.097468 C88.4810127,138.793671 88.6822785,144.501266 87.8848101,150.205063 C87.7822785,150.706329 88.1886076,151.610127 87.0873418,151.507595 C86.1835443,153.307595 87.2848101,154.610127 86.2898734,155.608861 C86.0848101,155.810127 86.4797468,156.710127 86.5822785,157.310127 C86.1797468,158.513924 86.1797468,158.513924 86.7797468,158.612658 C86.878481,160.81519 87.0835443,162.812658 87.178481,164.916456 C88.7734177,161.118987 87.9759494,157.207595 88.6822785,153.303797 C88.7810127,154.906329 88.8835443,156.508861 88.7810127,158.202532 C88.7810127,160.811392 88.6822785,163.310127 88.5835443,165.911392 C88.5835443,166.412658 88.4810127,166.913924 88.3822785,167.41519 C88.078481,168.820253 87.9835443,170.217722 87.4822785,171.516456 C87.0835443,172.518987 87.2848101,174.022785 87.2848101,175.218987 L87.2848101,179.027848 C87.6835443,180.729114 87.1822785,181.629114 87.4822785,182.627848 C87.178481,183.634177 87.0835443,183.934177 87.178481,184.234177 L87.4822785,185.734177 C89.4835443,185.532911 88.5835443,187.036709 89.3810127,187.834177 C88.7810127,188.639241 88.9822785,188.935443 88.9822785,189.341772 C88.9822785,190.241772 88.8873418,191.043038 88.7848101,191.943038 C88.7848101,194.244304 88.6860759,196.54557 88.6860759,198.748101 C88.6860759,199.051899 88.7848101,199.344304 88.7848101,199.644304 C88.7848101,199.849367 88.6860759,202.45443 88.6860759,202.45443 C88.8873418,202.750633 88.6860759,203.050633 88.3822785,203.350633 C88.2873418,203.350633 87.9873418,190.640506 87.9873418,190.640506 L86.4873418,190.640506 C86.2898734,196.640506 86.7911392,202.044304 85.6898734,207.653165 C84.4898734,207.748101 84.0949367,207.949367 82.7886076,207.949367 C79.6898734,207.949367 76.5911392,207.949367 73.4924051,208.048101 C69.7936709,208.048101 66.2012658,208.146835 62.4987342,208.146835 C60.7063291,208.146835 58.8075949,208.351899 57.0075949,208.351899 C54.6075949,208.351899 52.1088608,208.048101 49.7164557,208.048101 C46.0139241,208.048101 42.4177215,208.351899 38.7189873,208.450633 C36.0227848,208.549367 33.3265823,208.549367 30.6303797,208.651899 C28.8265823,208.746835 27.0227848,208.841772 25.2303797,209.046835 C24.4329114,209.14557 23.7303797,209.44557 22.7316456,209.74557 C22.4278481,209.74557 21.7329114,209.646835 21.1367089,209.74557 C20.1303797,209.946835 19.2379747,210.543038 18.2316456,210.748101 C16.7316456,211.051899 16.3329114,211.446835 16.5303797,212.950633 L16.5303797,213.949367 C16.4316456,214.146835 18.7329114,213.64557 18.7329114,213.64557 C18.5278481,213.64557 18.4291139,214.24557 18.1253165,214.746835 C18.9303797,214.443038 19.4278481,214.24557 19.9291139,214.048101 C21.4291139,214.750633 22.7278481,214.351899 23.9240506,214.655696 C27.8202532,215.650633 31.8151899,216.060759 35.8101266,216.451899 C38.4113924,216.653165 40.9101266,216.755696 43.5075949,216.850633 C47.2025316,217.051899 50.9012658,217.253165 54.5962025,217.253165 C57.6949367,217.253165 60.6949367,216.949367 63.7860759,216.949367 C68.0772152,216.949367 72.3835443,217.146835 76.678481,217.253165 C77.578481,217.253165 78.5772152,217.146835 79.5759494,217.146835 L86.8670886,217.146835 C93.3683544,216.949367 99.8620253,216.843038 106.359494,216.653165 C110.062025,216.546835 113.859494,216.349367 117.55443,216.246835 L128.946835,215.943038 C133.344304,215.844304 137.741772,215.844304 142.040506,215.753165 C145.336709,215.753165 148.534177,215.639241 151.837975,215.544304 C155.529114,215.44557 159.326582,215.14557 163.025316,214.948101 C165.026582,214.84557 167.027848,214.644304 169.025316,214.446835 C171.425316,214.249367 173.924051,213.953165 176.316456,213.850633 C179.916456,213.64557 183.61519,213.546835 187.21519,213.34557 C191.711392,213.049367 196.207595,212.650633 200.802532,212.548101 C205.002532,212.350633 209.297468,212.449367 213.497468,212.350633 C217.196203,212.248101 220.894937,212.046835 224.692405,211.948101 L230.996203,211.644304 C230.996203,211.644304 235.188608,211.54557 237.288608,211.340506 C240.88481,211.143038 244.481013,210.744304 248.081013,210.64557 C250.374684,210.543038 252.675949,210.64557 254.973418,210.543038 C258.668354,210.444304 262.465823,210.239241 266.164557,210.239241 C267.558228,210.239241 269.058228,210.444304 270.858228,210.543038 C270.060759,211.24557 269.559494,211.644304 268.959494,212.14557 C269.358228,212.244304 269.756962,212.449367 270.159494,212.646835 C269.693473,212.976001 269.135044,213.148848 268.564557,213.140506 C268.359494,213.64557 268.158228,213.846835 267.956962,214.849367 L269.756962,214.849367 C269.058228,214.849367 268.458228,215.749367 267.759494,216.349367 C266.962025,216.144304 266.259494,216.349367 265.860759,217.450633 C266.559494,217.84557 266.460759,218.14557 266.362025,218.551899 C265.162025,218.946835 264.262025,219.349367 264.767089,220.648101 C264.360759,220.84557 263.863291,221.046835 263.362025,221.346835 C262.868354,222.144304 261.964557,222.34557 262.162025,223.446835 C262.564557,223.541772 262.959494,223.750633 263.263291,223.841772 C262.762025,224.043038 262.264557,224.343038 261.763291,224.540506 C259.967089,225.641772 260.768354,226.143038 261.167089,226.644304 C260.863291,226.84557 260.567089,227.043038 260.267089,227.14557 C260.464557,228.04557 260.760759,228.246835 260.863291,228.246835 C260.352503,228.633161 259.852318,229.033309 259.363291,229.446835 C259.059494,230.346835 258.660759,230.74557 258.262025,231.34557 C257.863291,231.94557 257.662025,232.750633 257.160759,233.346835 C255.064557,235.651899 253.564557,238.359494 250.868354,240.155696 C249.865823,240.858228 248.96962,241.758228 248.06962,242.662025 C246.26962,244.359494 244.670886,246.262025 242.772152,247.864557 C240.261497,249.943726 237.66157,251.912676 234.979747,253.765823 C231.70729,256.06849 228.410908,258.336968 225.091139,260.570886 C223.291139,261.767089 221.293671,262.667089 219.394937,263.768354 C217.496203,264.86962 215.696203,265.872152 213.797468,266.96962 C212.597468,267.767089 211.496203,268.868354 210.197468,269.475949 C206.901266,270.881013 203.4,272.077215 200.005063,273.379747 C196.701266,274.78481 194.308861,275.981013 191.810127,276.881013 C189.512658,277.678481 187.112658,278.286076 184.716456,278.779747 C183.918987,278.98481 183.01519,278.779747 182.11519,278.882278 C180.413924,279.186076 178.716456,279.588608 177.01519,279.786076 C172.617722,280.386076 168.220253,280.788608 163.826582,281.388608 C161.225316,281.692405 158.726582,282.186076 156.129114,282.489873 C154.332911,282.588608 152.434177,282.391139 150.634177,282.391139 C149.335443,282.391139 147.937975,282.694937 146.635443,282.493671 C144.539241,282.189873 142.439241,281.696203 140.339241,281.293671 C139.84557,281.194937 139.139241,280.989873 138.744304,281.194937 C137.946835,281.597468 137.240506,280.997468 136.439241,281.194937 C135.94557,281.297468 135.444304,280.891139 134.943038,280.891139 C134.540506,280.796203 134.039241,280.997468 133.537975,280.891139 C132.436709,280.594937 131.441772,280.196203 130.234177,280.294937 C129.04557,280.393671 127.841772,279.793671 126.550633,279.497468 C124.746835,279.094937 123.056962,278.7 121.249367,278.293671 C120.550824,278.075493 119.881365,277.77328 119.255696,277.393671 C116.65443,277.393671 114.953165,277.294937 113.35443,276.691139 C111.956962,276.197468 110.658228,275.494937 109.158228,275.696203 C108.763291,275.794937 108.463291,275.597468 108.056962,275.597468 C107.753165,275.194937 107.460759,274.393671 107.164557,274.393671 C105.167089,274.496203 103.967089,272.798734 102.265823,272.293671 C101.36962,271.989873 100.670886,270.991139 99.7708861,270.691139 C97.5683544,269.791139 95.7759494,267.892405 93.2772152,267.592405 C92.4797468,267.489873 91.6822785,267.091139 90.778481,266.794937 C91.0822785,267.189873 91.2721519,267.489873 91.5759494,267.789873 C88.678481,266.38481 85.9822785,264.789873 83.2822785,263.286076 C82.8873418,263.187342 82.5873418,262.792405 82.2873418,262.587342 L79.5911392,260.787342 C78.0911392,261.091139 77.4911392,260.483544 77.0848101,260.286076 C74.3886076,258.387342 71.2936709,257.183544 68.6924051,255.083544 C67.5911392,254.179747 66.3,253.579747 65.5025316,252.478481 C64.0974684,250.777215 62.4,249.577215 60.5012658,248.578481 C59.0050633,247.781013 57.6075949,246.877215 56.2101266,245.977215 C55.5075949,245.475949 54.8050633,244.875949 54.8050633,243.774684 C54.8050633,243.072152 54.5088608,242.36962 53.6088608,242.772152 C53.2101266,242.172152 52.8113924,241.473418 52.3101266,241.272152 C51.1101266,240.778481 50.3126582,239.867089 49.4126582,239.06962 C48.5126582,238.272152 47.8177215,237.170886 46.7164557,236.772152 C44.7151899,235.974684 43.5151899,234.273418 42.3189873,232.872152 C39.5164557,229.568354 37.0177215,225.960759 34.4202532,222.467089 C34.2189873,222.163291 33.8202532,221.962025 33.5202532,221.662025 C33.9189873,222.763291 34.4202532,223.663291 34.9177215,224.662025 C33.9227848,224.263291 33.2240506,223.560759 32.6240506,222.862025 C32.521519,222.964557 39.5164557,234.470886 39.5164557,234.470886 C40.1240506,235.370886 40.6177215,236.274684 41.2177215,237.174684 C39.9871021,237.289143 38.8068122,236.658659 38.2177215,235.572152 C37.321519,233.977215 36.3189873,232.974684 34.321519,233.179747 C34.1095275,232.457012 33.9446246,231.721291 33.8278481,230.977215 C33.421519,230.977215 33.1253165,230.977215 32.4227848,230.874684 C33.8278481,233.077215 35.0240506,234.975949 36.3227848,237.178481 C35.8177215,236.874684 35.5253165,236.677215 35.3164557,236.578481 C37.1126582,238.477215 38.4113924,240.881013 40.7088608,242.08481 C41.2101266,244.382278 43.8075949,245.483544 44.4075949,247.686076 C43.9139241,247.583544 43.5037975,247.48481 43.0025316,247.382278 C42.2050633,246.383544 41.3050633,245.38481 40.4088608,244.283544 C40.6063291,244.982278 40.9025316,245.582278 41.3050633,246.083544 C42.5050633,247.583544 43.6063291,249.083544 45.0037975,250.386076 C45.5050633,250.894937 46.2037975,251.096203 46.2037975,251.996203 C47.0012658,252.394937 47.3050633,252.489873 47.6012658,252.489873 C47.8063291,253.097468 47.5063291,253.997468 48.7025316,253.796203 C49.5,255.296203 50.2974684,255.296203 51.3987342,254.798734 C52.7012658,256.101266 53.4037975,256.203797 54.3,255.406329 C54.3,255.9 54.3987342,256.401266 54.3987342,256.803797 C54.7974684,256.602532 54.7025316,256.302532 54.7025316,255.801266 C55.1962025,256.2 55.5,256.401266 55.6974684,256.598734 C56.6962025,258.003797 57.5962025,259.302532 58.9936709,260.403797 C60.8924051,262.006329 62.5936709,263.707595 64.3860759,265.207595 C67.8873418,268.112658 71.7911392,270.516456 75.6835443,272.71519 C80.4835443,275.418987 85.0822785,278.320253 89.9772152,280.917722 C95.8708861,284.024051 102.167089,286.127848 108.660759,287.627848 C111.060759,288.129114 113.358228,288.626582 115.762025,289.222785 C117.850633,289.83038 119.95443,290.73038 122.05443,291.227848 C125.251899,291.93038 128.548101,292.53038 131.74557,293.126582 C132.440506,293.229114 133.150633,293.331646 133.948101,293.43038 C134.840506,293.631646 135.937975,293.229114 136.139241,293.532911 C136.640506,294.33038 137.039241,293.927848 137.639241,293.829114 C138.337975,293.627848 139.139241,293.627848 139.936709,293.627848 C142.735443,293.726582 145.431646,294.326582 148.23038,294.129114 C148.837975,294.129114 149.734177,293.624051 150.235443,294.622785 C151.131646,294.224051 151.632911,294.224051 152.031646,294.129114 C152.137975,295.025316 152.031646,295.025316 151.841772,295.124051 C151.636709,295.222785 151.336709,295.325316 150.937975,295.625316 C154.534177,296.324051 157.932911,296.422785 160.925316,295.625316 C166.127848,296.024051 170.624051,295.424051 174.922785,293.924051 C175.321519,294.425316 175.621519,295.124051 176.221519,294.125316 C176.418987,293.821519 176.920253,293.718987 177.322785,293.620253 C178.218987,293.418987 179.320253,293.020253 180.117722,293.316456 C181.021519,293.620253 181.321519,292.822785 182.016456,292.822785 C183.220253,292.822785 184.317722,292.720253 185.418987,292.518987 C186.018987,292.420253 186.618987,292.120253 187.317722,291.918987 C186.633175,291.58062 185.878772,291.407628 185.11519,291.413924 C186.318987,290.813924 187.416456,290.312658 188.517722,289.818987 C188.316456,290.11519 188.11519,290.513924 187.720253,290.513924 L189.113924,290.513924 C188.810127,290.513924 188.411392,291.413924 187.913924,292.013924 C191.506329,291.113924 194.802532,290.312658 198.003797,289.507595 C196.902532,287.411392 199.2,288.113924 200.001266,286.910127 C199.002532,287.213924 198.003797,287.510127 197.001266,287.707595 C200.4,286.010127 203.897468,284.510127 207.292405,283.010127 C206.798734,283.610127 206.191139,283.910127 205.298734,284.41519 C205.898734,284.510127 206.297468,284.510127 206.597468,284.605063 C208.192405,285.110127 207.797468,283.610127 208.294937,282.706329 C210.193671,282.706329 210.991139,282.410127 211.891139,282.106329 C212.889873,281.802532 213.888608,281.506329 214.891139,281.107595 C216.486076,280.408861 217.986076,279.512658 219.58481,278.71519 C219.888608,278.608861 220.382278,278.71519 220.78481,278.71519 C221.886076,278.008861 222.281013,277.408861 222.581013,277.507595 C223.986076,277.708861 224.973418,277.203797 225.375949,275.912658 C226.074684,275.407595 226.575949,275.008861 227.073418,274.705063 C229.268354,273.505063 231.364557,272.305063 233.567089,271.105063 C234.364557,271.105063 234.767089,271.105063 234.964557,271.002532 C236.270886,270.394937 237.470886,269.703797 238.667089,269.001266 C238.323828,268.858533 237.990212,268.693628 237.668354,268.507595 C238.663291,268.302532 238.959494,268.203797 239.567089,268.002532 C241.959494,265.192405 245.263291,263.293671 247.758228,261.091139 C248.859494,260.992405 248.859494,260.692405 248.859494,260.494937 C249.25443,259.993671 249.656962,259.393671 250.150633,258.991139 C252.353165,256.989873 254.74557,255.288608 256.746835,253.188608 C259.640583,250.305011 262.407746,247.297114 265.040506,244.173418 C267.432911,241.370886 269.840506,238.572152 271.837975,235.46962 C274.636709,231.167089 277.032911,226.762025 279.531646,222.25443 C281.331646,219.056962 282.93038,215.855696 284.734177,212.65443 C284.924051,212.350633 285.33038,211.951899 285.63038,211.951899 C288.326582,211.648101 291.03038,211.458228 293.627848,211.15443 C294.227848,211.055696 294.926582,210.660759 295.526582,210.356962 C295.222785,209.855696 295.025316,209.255696 294.729114,208.75443 C294.326582,208.146835 293.726582,207.653165 293.324051,207.04557 C292.929114,206.551899 292.629114,205.944304 292.329114,205.348101 C292.025316,204.85443 291.729114,204.451899 291.429114,203.943038 C290.801451,202.841553 290.231072,201.7084 289.720253,200.548101 C289.621519,200.244304 289.416456,199.750633 289.522785,199.446835 C291.322785,195.546835 292.021519,191.343038 293.718987,187.439241 C295.416456,183.436709 295.921519,178.932911 296.718987,174.63038 C297.417722,170.529114 297.820253,166.427848 298.313924,162.326582 C298.617722,159.425316 299.016456,156.622785 299.111392,153.721519 C299.718987,149.118987 299.513924,144.812658 299.41519,140.506329 C299.316456,136.708861 299.111392,132.805063 298.921519,129 L298.898734,128.988608 Z M48.1708861,252.170886 C47.4721519,251.373418 46.8721519,250.46962 46.1734177,249.672152 L46.4772152,249.368354 C47.5670886,250.572152 48.6683544,251.772152 49.7658228,253.074684 C49.1658228,252.770886 48.4670886,252.573418 48.1708861,252.170886 Z M49.7658228,253.074684 C50.0696203,252.972152 50.3734177,252.972152 50.6696203,252.873418 C50.9734177,253.374684 51.1708861,253.974684 51.4670886,254.574684 C50.0696203,254.472152 49.3708861,253.872152 49.7696203,253.074684 L49.7658228,253.074684 Z M153.702532,294.402532 L153.702532,294.098734 C155.601266,293.901266 157.397468,293.7 159.296203,293.502532 L159.296203,293.794937 C157.397468,294.098734 155.601266,294.288608 153.702532,294.394937 L153.702532,294.402532 Z M178.879747,291.801266 C177.486076,292.105063 175.986076,292.306329 174.588608,292.507595 C174.087342,292.606329 173.487342,293.107595 173.289873,292.203797 C173.088608,292.306329 172.887342,292.306329 172.689873,292.408861 C173.183544,293.905063 174.387342,292.705063 175.386076,293.305063 C173.183544,293.608861 171.094937,293.806329 168.991139,294.102532 L168.991139,293.905063 C169.598734,293.806329 170.293671,293.703797 170.889873,293.601266 L170.889873,293.305063 C169.89396,293.186857 168.892651,293.11968 167.889873,293.103797 C167.597468,293.103797 167.194937,293.506329 166.894937,293.605063 C166.496203,293.703797 166.097468,293.806329 165.596203,293.806329 C163.898734,293.905063 162.201266,293.905063 160.598734,294.003797 C160.496203,294.003797 160.294937,293.905063 160.196203,293.905063 L160.196203,293.601266 C166.891139,292.705063 173.487342,291.805063 180.182278,290.905063 C180.28481,291.102532 180.28481,291.303797 180.383544,291.501266 C179.783544,291.501266 179.38481,291.710127 178.883544,291.805063 L178.879747,291.801266 Z M180.383544,290.806329 C182.68481,290.502532 184.788608,290.305063 186.983544,290.008861 C182.388608,291.307595 180.888608,291.505063 180.387342,290.806329 L180.383544,290.806329 Z M93.3417722,88.7620253 C96.5316456,84.356962 99.835443,79.9518987 103.032911,75.4518987 C104.031646,74.1417722 104.829114,72.7405063 105.827848,71.4417722 C106.131646,71.0392405 106.53038,70.8417722 107.027848,70.4392405 L106.929114,70.2493671 C107.327848,69.7443038 107.726582,69.3379747 107.927848,68.943038 C108.436709,68.1455696 108.736709,67.2417722 109.135443,66.3417722 C109.234177,66.1518987 109.534177,65.9506329 109.534177,65.9506329 C110.939241,66.6493671 110.939241,65.1531646 111.432911,64.6481013 C112.332911,63.6455696 113.232911,62.5481013 114.03038,61.5455696 C114.63038,60.7481013 115.23038,60.0455696 115.731646,59.1455696 C115.83038,58.8417722 115.53038,58.3481013 115.427848,57.9417722 L115.131646,57.9417722 C115.435443,57.7443038 115.731646,57.4481013 116.031646,57.243038 C116.13038,57.243038 116.13038,57.243038 116.229114,57.1443038 C116.829114,56.2405063 117.429114,55.3405063 118.029114,54.5392405 C119.225316,52.9443038 120.524051,51.3417722 121.921519,49.9443038 C121.724051,50.4379747 121.522785,50.943038 121.321519,51.3417722 C121.424051,51.3417722 121.424051,51.4443038 121.522785,51.4443038 C122.722785,49.8417722 124.021519,48.3417722 125.221519,46.735443 C125.118987,46.6405063 125.020253,46.5379747 124.917722,46.5379747 C124.424051,47.0392405 124.021519,47.5405063 123.520253,48.0417722 C123.421519,47.9392405 123.322785,47.8405063 123.216456,47.8405063 C124.222785,46.5379747 125.221519,45.2392405 126.216456,43.7392405 C126.417722,44.043038 126.618987,44.4379747 127.013924,45.2392405 C127.420253,44.2405063 127.818987,43.5417722 128.11519,42.8392405 C127.818987,43.143038 127.420253,43.4392405 127.120253,43.743038 L126.816456,43.4392405 L128.616456,40.743038 C130.51519,38.0392405 132.413924,35.2367089 134.312658,32.5329114 C135.01519,31.5341772 135.907595,30.7329114 136.51519,29.7303797 C138.413924,25.9329114 141.413924,22.9253165 143.707595,19.4240506 C144.208861,18.7253165 144.907595,18.1253165 145.507595,17.5253165 C146.001266,16.9177215 146.407595,17.1227848 146.806329,17.6240506 C149.502532,21.0265823 152.198734,24.5278481 154.894937,27.9303797 C156.9,30.4367089 158.897468,32.8291139 160.796203,35.4341772 C163.093671,38.6392405 165.292405,41.8405063 167.593671,45.0417722 C170.191139,48.7443038 172.788608,52.4468354 175.287342,56.2443038 C179.08481,61.8531646 182.681013,67.4582278 186.478481,73.0594937 C189.277215,77.1607595 192.075949,81.1670886 194.772152,85.2683544 L189.668354,85.2683544 C184.974684,85.1734177 180.174684,84.7746835 175.481013,84.9721519 C169.086076,85.2759494 162.592405,85.9746835 156.197468,86.4759494 C148.101266,87.178481 139.906329,87.2734177 131.817722,87.2734177 C128.912658,87.2734177 126.01519,87.6797468 123.121519,87.8810127 C119.620253,88.078481 116.221519,88.2797468 112.724051,88.3746835 C108.622785,88.5797468 104.635443,88.678481 100.534177,88.7810127 C98.2329114,88.8797468 95.8367089,88.7810127 93.3379747,88.7810127 L93.3417722,88.7620253 Z M207.960759,134.787342 L207.960759,135.691139 C207.862025,135.691139 207.763291,135.793671 207.562025,135.793671 C207.163291,134.388608 206.764557,132.88481 206.263291,131.483544 C205.264557,128.578481 204.163291,125.673418 202.363291,123.075949 C200.358228,120.277215 198.565823,117.379747 196.560759,114.474684 C196.067089,113.772152 195.360759,113.172152 194.760759,112.575949 C192.660759,110.270886 190.560759,107.867089 187.864557,106.16962 C183.891954,103.677837 179.711919,101.533187 175.370886,99.7594937 C174.16561,99.2420568 172.998178,98.6405758 171.877215,97.9594937 L174.26962,97.9594937 L191.358228,97.6556962 C195.056962,97.5607595 198.656962,97.5607595 202.351899,97.3594937 C203.248101,97.3594937 203.749367,97.6632911 204.250633,98.4607595 C205.146835,99.9607595 206.046835,101.460759 207.04557,102.964557 C207.148101,103.162025 207.349367,103.458228 207.349367,103.762025 C207.349367,105.964557 207.349367,108.265823 207.448101,110.468354 C207.543038,112.76962 207.751899,114.972152 207.843038,117.273418 C207.843038,119.574684 207.641772,121.974684 207.744304,124.374684 C207.846835,127.781013 207.94557,131.286076 207.94557,134.779747 L207.960759,134.787342 Z M100.431646,101.278481 C105.129114,101.077215 109.621519,100.777215 114.224051,100.575949 C117.812658,100.374684 121.51519,100.272152 125.107595,100.074684 C126.607595,99.9797468 128.008861,99.8848101 129.505063,100.074684 C127.910127,100.879747 126.307595,101.681013 124.910127,102.679747 C123.110127,103.879747 121.416456,105.478481 119.612658,106.781013 C117.808861,108.079747 116.210127,109.682278 114.713924,111.383544 C112.81519,113.681013 110.71519,115.682278 108.713924,117.88481 C107.308861,119.487342 105.713924,120.987342 104.517722,122.688608 C102.820253,124.891139 101.320253,127.283544 99.721519,129.789873 C100.222785,120.281013 100.822785,110.878481 100.420253,101.270886 L100.431646,101.278481 Z M165.691139,197.544304 C162.489873,198.341772 159.197468,199.24557 155.893671,199.644304 C153.098734,200.046835 150.197468,199.948101 147.3,199.948101 C144.694937,199.948101 142.196203,199.849367 139.598734,199.644304 C136.701266,199.348101 133.803797,199.048101 131.005063,197.74557 C128.601266,196.644304 126.106329,195.64557 123.713924,194.441772 C121.306329,193.241772 118.910127,191.844304 117.106329,189.641772 C115.81519,188.035443 114.011392,186.736709 112.412658,185.335443 C112.716456,186.535443 113.411392,187.537975 114.512658,188.236709 C114.011392,188.836709 113.312658,188.540506 112.310127,186.934177 C112.013924,187.135443 111.713924,187.237975 111.512658,187.336709 C111.816456,186.634177 112.112658,185.931646 112.412658,185.335443 C112.013924,184.537975 111.512658,183.634177 111.113924,182.829114 C110.316456,181.53038 109.518987,180.132911 108.816456,178.83038 C108.61519,178.526582 108.61519,178.23038 108.417722,177.93038 C107.918937,177.353449 107.44997,176.751397 107.012658,176.126582 C106.21519,174.93038 105.516456,173.631646 104.517722,172.427848 C104.517722,172.731646 104.620253,173.027848 104.620253,173.43038 C104.517722,173.43038 104.418987,173.529114 104.418987,173.529114 L102.31519,168.425316 C102.216456,168.425316 102.216456,168.425316 102.117722,168.524051 L103.913924,175.131646 C103.81519,175.131646 103.716456,175.226582 103.610127,175.226582 C103.317722,174.831646 103.017722,174.429114 102.812658,173.935443 C102.61519,173.13038 102.01519,173.13038 101.521519,173.43038 C101.217722,173.631646 101.016456,174.33038 101.118987,174.63038 C101.821519,176.331646 102.618987,178.032911 103.420253,179.734177 C103.617722,180.334177 103.818987,180.835443 104.118987,181.435443 C104.221519,181.636709 104.521519,181.834177 104.521519,182.134177 C104.924051,182.931646 105.224051,183.729114 105.721519,184.435443 C106.621519,185.635443 107.620253,186.835443 108.520253,188.035443 C109.412658,189.235443 110.210127,190.541772 111.011392,191.737975 C111.110127,191.939241 111.410127,191.939241 111.505063,192.041772 C112.010127,193.541772 113.707595,194.639241 114.907595,194.039241 C115.211392,196.340506 117.706329,197.141772 118.705063,199.344304 C117.724343,198.944056 116.757929,198.509613 115.807595,198.041772 C115.705063,198.140506 115.705063,198.239241 115.602532,198.440506 C116.802532,199.040506 118.002532,199.640506 119.096203,200.339241 C120.102532,200.946835 121.101266,201.543038 122.001266,202.237975 C123.201266,203.339241 124.602532,203.946835 126.292405,204.341772 C126.201266,204.037975 126.102532,203.935443 126.102532,203.935443 C128.897468,205.237975 131.798734,206.639241 133.993671,207.732911 C123.6,207.937975 112.507595,208.139241 101.012658,208.340506 C101.012658,206.441772 100.913924,204.637975 100.913924,202.735443 C100.913924,201.937975 101.111392,201.235443 101.008861,200.434177 C100.705063,195.839241 100.705063,191.229114 100.108861,186.725316 C99.5126582,181.925316 99.5126582,177.220253 99.6151899,172.408861 C99.7101266,169.81519 99.5126582,167.11519 99.4101266,164.510127 C99.4101266,161.008861 99.4101266,157.598734 99.5164557,154.105063 C99.5164557,153.603797 99.7177215,153.205063 99.9189873,152.7 L100.222785,152.7 C100.317722,152.905063 100.222785,153.205063 100.412658,153.307595 C100.716456,153.611392 101.217722,154.105063 101.418987,154.006329 C102.01519,153.603797 102.91519,153.208861 103.116456,152.601266 C103.610127,151.405063 103.81519,150.102532 103.81519,148.902532 C103.81519,148.006329 104.217722,147.406329 104.612658,146.802532 C104.817722,146.498734 104.916456,146.202532 105.117722,145.803797 C104.718987,145.5 104.320253,145.302532 103.818987,144.903797 C104.221519,143.802532 104.122785,142.5 105.622785,141.903797 C105.820253,141.801266 105.820253,141.296203 105.926582,141 C106.021519,140.191139 106.116456,139.291139 106.222785,138.493671 C106.420253,138.797468 106.526582,138.892405 106.716456,139.089873 C106.772908,138.981064 106.841717,138.879125 106.921519,138.786076 C106.921519,138.391139 106.822785,137.589873 106.921519,137.589873 C108.121519,137.388608 107.620253,136.089873 108.220253,135.489873 C108.31519,135.383544 108.117722,135.083544 108.117722,134.882278 C108.117722,134.68481 108.117722,134.388608 108.216456,134.388608 C109.610127,134.08481 109.412658,132.58481 110.312658,131.882278 C110.616456,131.681013 110.711392,131.388608 111.110127,130.883544 C111.907595,132.281013 110.510127,132.983544 110.411392,133.982278 C112.105063,132.983544 112.606329,130.583544 111.607595,129.881013 C112.006329,129.577215 112.405063,129.182278 112.708861,128.779747 C113.810127,127.579747 115.002532,126.478481 116.005063,125.278481 C116.707595,124.382278 117.106329,123.281013 117.805063,122.381013 C118.207595,121.879747 119.005063,121.481013 119.605063,121.177215 C121.405063,120.182278 123.098734,119.081013 124.2,117.379747 C124.401266,117.178481 124.701266,116.981013 124.997468,116.779747 C125.301266,116.578481 125.901266,116.578481 126,116.278481 C126.102532,116.081013 125.802532,115.579747 125.601266,115.279747 C125.996203,115.078481 126.398734,114.679747 127.196203,114.277215 C126.892405,114.877215 126.797468,115.279747 126.596203,115.682278 L127.089873,116.175949 C127.993671,115.477215 129.391139,114.679747 130.291139,114.079747 C130.291139,113.98481 129.789873,113.586076 129.789873,113.586076 C129.193671,113.889873 128.293671,114.383544 127.397468,114.786076 C127.587342,114.482278 127.587342,114.28481 127.701266,114.186076 C129.094937,113.286076 130.492405,112.386076 131.992405,111.679747 C135.486076,110.08481 138.987342,108.482278 142.48481,106.982278 C143.08481,106.678481 143.889873,106.883544 144.58481,106.883544 C144.881013,106.883544 145.078481,106.883544 145.382278,106.78481 C146.977215,106.283544 148.579747,105.782278 150.178481,105.379747 C150.873418,105.182278 151.670886,105.083544 152.381013,105.083544 C155.36962,105.178481 158.36962,105.178481 161.365823,105.379747 C162.664557,105.478481 163.864557,105.778481 165.064557,106.177215 C166.602913,106.711871 168.104824,107.346124 169.560759,108.075949 C171.258228,108.987342 172.856962,109.982278 174.459494,111.083544 C177.356962,112.982278 180.053165,115.086076 182.950633,116.787342 C185.749367,118.488608 187.948101,120.789873 189.748101,123.394937 C191.950633,126.493671 194.44557,129.296203 195.444304,133.097468 L196.940506,139.705063 C197.244304,140.905063 197.943038,142.105063 197.643038,143.502532 C197.137975,146.008861 196.739241,148.610127 196.340506,151.112658 C196.143038,152.118987 195.941772,153.125316 196.044304,154.112658 C196.234177,157.226582 195.037975,159.922785 193.841772,162.725316 C193.439241,163.625316 192.839241,164.529114 192.341772,165.527848 C192.58625,165.700684 192.854992,165.836334 193.139241,165.93038 L194.039241,164.13038 C194.141772,164.13038 194.141772,164.13038 194.240506,164.232911 C193.739241,165.63038 193.340506,167.134177 192.835443,168.535443 C191.643038,171.637975 190.443038,174.839241 188.943038,177.839241 C188.14557,179.540506 186.740506,180.941772 185.74557,182.548101 C184.750633,183.94557 183.949367,185.44557 182.950633,186.748101 C182.050633,187.849367 181.15443,188.950633 179.950633,189.748101 C177.25443,191.749367 174.455696,193.750633 171.558228,195.353165 C169.762025,196.45443 167.662025,197.05443 165.664557,197.555696 L165.691139,197.544304 Z M112.424051,192.227848 L112.325316,192.33038 C112.116456,192.231646 111.816456,192.132911 111.618987,191.931646 L109.218987,188.324051 C109.021519,188.027848 108.91519,187.727848 109.021519,187.329114 C110.122785,189.03038 111.224051,190.632911 112.420253,192.227848 L112.424051,192.227848 Z M174.588608,205.936709 C179.081013,204.037975 182.779747,201.341772 186.170886,198.235443 C186.675949,197.734177 187.173418,197.236709 187.773418,196.83038 C191.973418,194.232911 195.064557,190.629114 197.867089,186.626582 C201.064557,182.024051 203.164557,176.821519 205.765823,171.918987 C205.942184,171.54022 206.141281,171.172461 206.362025,170.817722 C206.160759,182.225316 207.463291,193.431646 208.959494,204.740506 C197.66962,205.139241 186.174684,205.537975 174.58481,205.940506 L174.588608,205.936709 Z M275.916456,202.936709 C275.817722,203.137975 275.612658,203.339241 275.517722,203.544304 C275.41519,203.339241 275.41519,203.039241 275.316456,202.632911 C274.716456,204.239241 273.417722,203.437975 272.517722,203.437975 C267.125316,203.540506 261.626582,203.540506 256.226582,203.540506 C251.031646,203.540506 245.737975,203.540506 240.543038,203.631646 C238.841772,203.631646 237.041772,204.03038 235.340506,204.132911 C231.246835,204.33038 227.149367,204.436709 223.051899,204.531646 C222.748101,204.531646 222.451899,204.037975 221.950633,203.635443 C221.774585,203.950739 221.573964,204.25167 221.350633,204.535443 C221.244304,204.337975 221.046835,204.140506 220.84557,203.840506 C220.746835,204.144304 220.644304,204.440506 220.541772,204.637975 L220.253165,204.637975 C220.051899,203.240506 219.653165,201.941772 219.653165,200.536709 C219.653165,197.536709 219.956962,194.536709 220.051899,191.529114 C220.15443,190.131646 220.051899,188.832911 220.051899,187.526582 C220.45443,187.83038 220.75443,188.031646 221.153165,188.324051 C221.350633,187.932911 221.551899,187.632911 221.753165,187.336709 C221.753165,187.336709 221.551899,187.23038 221.350633,187.032911 C221.540506,186.93038 221.74557,186.729114 221.74557,186.63038 C221.844304,186.326582 222.049367,186.03038 222.049367,185.832911 C222.049367,185.13038 221.844304,184.53038 221.74557,183.934177 C221.844304,183.934177 221.943038,183.934177 222.049367,183.827848 L222.64557,186.827848 L222.949367,186.827848 C222.546835,186.132911 223.84557,185.529114 222.748101,184.731646 C222.649367,184.629114 222.846835,184.029114 222.846835,183.729114 C222.543038,183.132911 222.353165,182.532911 222.049367,181.731646 C222.148101,181.632911 222.448101,181.53038 222.748101,181.427848 C222.349367,181.23038 222.049367,181.032911 221.749367,180.934177 C222.748101,180.03038 222.748101,179.529114 221.848101,178.53038 C222.053165,178.435443 222.250633,178.435443 222.250633,178.340506 C222.250633,177.436709 222.250633,176.536709 222.053165,175.644304 C221.851899,174.634177 222.356962,173.441772 220.853165,172.834177 C220.945612,173.118377 221.080008,173.387167 221.251899,173.631646 C221.251899,173.631646 220.948101,173.734177 220.651899,173.935443 C219.353165,172.731646 220.158228,171.125316 219.85443,169.329114 C220.553165,169.53038 221.05443,169.731646 221.551899,169.936709 C221.350633,169.23038 220.853165,168.429114 220.553165,167.529114 L220.146835,167.529114 L220.146835,160.921519 C220.146835,161.024051 220.84557,161.024051 221.248101,161.126582 C221.248101,161.024051 221.343038,160.925316 221.343038,160.822785 C221.039241,160.424051 220.640506,160.025316 220.241772,159.524051 L220.443038,159.322785 C219.64557,158.327848 220.044304,156.93038 220.044304,156.626582 L220.044304,149.620253 C221.046835,150.622785 219.550633,151.921519 221.046835,152.521519 L221.046835,151.522785 L220.944304,151.522785 C220.84557,150.022785 220.84557,148.522785 220.746835,147.018987 L220.549367,147.018987 C220.446835,147.224051 220.446835,147.322785 220.344304,147.524051 L220.146835,147.524051 L220.746835,123.607595 C221.74557,124.906329 222.843038,126.113924 223.541772,127.405063 C225.843038,131.612658 228.839241,135.216456 231.637975,139.017722 C234.037975,142.321519 236.232911,145.921519 238.435443,149.324051 C241.131646,153.425316 243.729114,157.526582 246.429114,161.627848 C248.43711,164.735527 250.500733,167.806908 252.618987,170.840506 C254.517722,173.536709 256.522785,176.141772 258.520253,178.746835 C260.213924,181.048101 262.013924,183.349367 263.711392,185.650633 C265.712658,188.453165 267.710127,191.251899 269.711392,193.955696 C270.706329,195.353165 271.807595,196.75443 272.901266,198.155696 C273.508861,198.953165 274.405063,199.560759 275.005063,200.05443 C274.910127,200.05443 274.807595,200.05443 274.610127,199.955696 C274.913924,200.35443 275.103797,200.65443 275.308861,200.855696 C276.410127,201.455696 276.508861,202.055696 275.908861,202.959494 L275.916456,202.936709 Z M281.012658,177.926582 L281.012658,177.224051 C281.012658,177.421519 281.111392,177.717722 281.012658,177.922785 L281.012658,177.926582 Z M284.411392,133.8 C284.308861,133.8 283.712658,133.192405 283.613924,133.093671 C283.511392,133.397468 283.613924,133.693671 283.412658,134.096203 C283.310127,133.8 282.61519,133.898734 282.61519,133.602532 C282.512658,135 283.211392,136.401266 283.108861,137.802532 C283.412658,137.601266 284.608861,137.498734 284.908861,137.202532 C285.011392,137.301266 285.212658,137.4 285.311392,137.4 C283.310127,138.903797 283.811392,140.4 284.711392,142.108861 C284.908861,142.503797 285.508861,143.305063 284.908861,144.106329 C284.711392,144.307595 285.011392,144.903797 285.110127,145.408861 L285.402532,145.408861 L285.402532,145.598734 L284.502532,145.902532 C284.305063,145.598734 283.108861,145.006329 283.108861,144.497468 L283.108861,149.608861 C284.107595,149.912658 284.107595,151.310127 284.506329,152.012658 C284.681997,151.769325 284.819054,151.500336 284.912658,151.21519 L285.01519,151.306329 C284.912658,151.906329 284.813924,152.506329 284.612658,153.110127 C284.41519,154.006329 284.213924,154.807595 284.118987,155.707595 C284.118987,155.806329 284.308861,156.011392 284.308861,156.106329 C283.21519,158.612658 283.81519,161.407595 283.416456,164.005063 C283.112658,165.903797 283.416456,167.916456 283.21519,169.913924 C283.010127,171.61519 282.607595,173.41519 282.212658,175.116456 C282.110127,175.420253 281.908861,175.51519 281.41519,175.716456 C281.612658,174.516456 281.513924,173.71519 281.312658,172.613924 C281.206329,172.613924 279.907595,171.91519 279.805063,171.91519 C279.805063,173.320253 280.602532,175.218987 280.906329,176.813924 C280.602532,176.71519 279.406329,176.016456 279.311392,176.016456 C279.106329,177.216456 279.106329,178.818987 279.007595,180.117722 C278.905063,181.120253 278.008861,182.016456 277.906329,183.117722 C277.906329,183.725316 278.605063,184.120253 278.506329,185.122785 L279.303797,185.122785 C279.303797,183.125316 280.207595,181.325316 280.207595,179.221519 L280.503797,179.221519 C280.606329,179.422785 280.906329,179.624051 280.807595,179.722785 C280.606329,180.824051 280.2,182.024051 280.306329,183.125316 C280.306329,183.725316 280.8,184.325316 280.610127,185.024051 C280.405063,185.631646 280.306329,186.227848 280.203797,187.127848 C280.101266,186.626582 280.002532,186.429114 280.002532,186.129114 C279.903797,186.129114 279.003797,186.026582 278.901266,186.026582 C278.802532,186.626582 279.603797,187.226582 279.501266,187.727848 C279.402532,187.826582 279.303797,187.826582 279.102532,187.929114 L275.806329,183.121519 C273.201266,179.324051 270.603797,175.51519 268.006329,171.61519 C267.332749,170.66049 266.729876,169.657816 266.202532,168.61519 C263.11059,163.290676 259.672835,158.174638 255.911392,153.3 C253.017722,149.601266 250.708861,145.591139 248.012658,141.698734 C245.521519,137.996203 243.022785,134.392405 240.524051,130.686076 C239.624051,129.489873 238.526582,128.388608 237.725316,127.086076 C235.131646,122.98481 232.826582,118.781013 230.236709,114.679747 C228.034177,111.273418 225.641772,107.96962 223.340506,104.66962 C222.543038,103.568354 221.74557,102.364557 220.940506,101.164557 C220.815872,100.955196 220.747822,100.717022 220.743038,100.473418 C220.541772,98.2708861 220.340506,96.0683544 220.241772,93.9683544 C220.241772,91.9670886 220.443038,89.9658228 220.443038,87.8620253 L220.443038,86.0620253 C220.443038,85.5607595 220.537975,85.1620253 220.537975,84.656962 C220.632911,84.5620253 220.735443,84.3607595 220.834177,84.2620253 C217.936709,84.2620253 214.936709,84.1556962 212.039241,84.2620253 C210.140506,84.356962 209.141772,83.5556962 207.843038,82.1544304 C204.04557,77.8518987 201.246835,72.9493671 197.950633,68.3468354 C194.842863,63.9677178 191.678036,59.6293732 188.456962,55.3329114 C185.855696,51.8316456 183.25443,48.4291139 180.660759,44.9278481 C177.759494,40.9253165 174.964557,36.9227848 171.964557,32.9202532 C168.364557,28.1202532 164.665823,23.3126582 160.970886,18.5126582 C159.262025,16.3101266 157.363291,14.2101266 155.464557,11.9050633 C156.767089,12.1101266 157.970886,12.3075949 159.167089,12.4101266 L163.967089,12.7139241 C167.563291,13.0063291 171.159494,13.2075949 174.751899,13.7012658 C177.751899,14.1075949 180.751899,14.7075949 183.850633,15.2050633 C190.450633,16.3063291 196.944304,18.1101266 203.240506,20.2101266 C206.939241,21.4101266 210.531646,23.0126582 214.139241,24.5126582 C222.227848,27.8164557 229.925316,31.8189873 237.520253,36.0189873 C239.912658,37.321519 241.317722,39.421519 243.110127,41.3240506 C245.711392,44.0278481 248.312658,46.7278481 250.807595,49.5265823 C253.701266,52.8303797 256.397468,56.2329114 259.2,59.635443 C261.694937,62.635443 264.288608,65.635443 266.794937,68.643038 C267.592405,69.543038 268.2,70.6443038 268.891139,71.643038 C270.486076,74.0468354 272.289873,76.3518987 273.687342,78.9493671 C274.682278,80.8556962 275.282278,83.0582278 275.981013,85.1582278 C276.975949,88.2607595 277.978481,91.2607595 278.981013,94.3632911 C279.675949,96.664557 280.272152,99.0721519 280.773418,101.464557 C281.175949,103.070886 281.077215,104.768354 281.570886,106.363291 C282.178481,108.474684 281.570886,110.768354 282.178481,112.875949 C282.273418,113.077215 282.368354,113.377215 282.474684,113.578481 C282.873418,113.973418 283.173418,114.375949 282.573418,114.975949 C282.478481,115.074684 282.478481,115.46962 282.573418,115.773418 C282.778481,115.575949 282.877215,115.374684 283.078481,115.074684 C283.078481,115.275949 283.173418,115.378481 283.173418,115.473418 C283.173418,115.868354 283.070886,116.270886 283.173418,116.66962 C283.173418,116.867089 283.370886,117.163291 283.46962,117.368354 C283.670886,117.163291 283.868354,117.064557 284.267089,116.760759 C285.167089,120.167089 285.26962,123.56962 285.26962,127.070886 C285.26962,130.374684 285.865823,133.678481 284.472152,136.879747 C284.768354,135.778481 284.06962,134.772152 284.36962,133.773418 L284.411392,133.8 Z" id="Shape"></path>
                <path d="M220.556962,172.716456 C220.651899,172.716456 220.75443,172.818987 220.75443,172.818987 L220.651899,172.705063 C220.651899,172.610127 220.651899,172.610127 220.553165,172.705063 L220.556962,172.716456 Z M236.343038,271.587342 C235.241772,272.38481 234.140506,273.087342 232.743038,273.387342 C232.636709,273.288608 232.636709,273.186076 232.537975,273.083544 C233.639241,272.38481 234.835443,271.686076 235.936709,270.983544 C236.039241,271.173418 236.240506,271.378481 236.339241,271.579747 L236.343038,271.587342 Z M48.9683544,135.987342 C50.0696203,134.593671 51.1708861,133.192405 52.3632911,131.791139 C52.4582278,131.889873 53.2556962,132.094937 53.3582278,132.189873 C52.256962,133.594937 50.756962,135.493671 49.6594937,136.993671 C49.4544304,136.792405 49.1544304,136.093671 48.956962,135.991139 L48.9683544,135.987342 Z M20.5822785,185.031646 C19.7848101,183.33038 18.9873418,181.526582 18.1898734,179.829114 C18.4679125,179.65294 18.7696957,179.517393 19.0860759,179.426582 C20.1873418,181.021519 20.6810127,182.920253 21.4860759,184.629114 C21.4860759,184.629114 20.6886076,185.027848 20.5860759,185.027848 L20.5822785,185.031646 Z M46.0708861,136.993671 C45.4708861,137.897468 44.8708861,138.9 44.2708861,139.803797 C44.1721519,139.697468 43.0708861,140.198734 42.9721519,140.1 C43.5721519,139.2 45.0683544,137.593671 45.6683544,136.697468 C45.7708861,136.796203 45.8696203,136.898734 46.0708861,137.001266 L46.0708861,136.993671 Z M225.653165,275.696203 C225.748101,275.696203 225.748101,275.597468 225.850633,275.597468 C226.549367,275.696203 227.346835,275.794937 228.148101,275.794937 C226.841772,276.694937 226.040506,276.592405 225.641772,275.696203 L225.653165,275.696203 Z M46.2607595,141.197468 C46.3670886,140.893671 46.564557,140.597468 46.7658228,140.297468 C46.9632911,140.297468 47.2594937,140.194937 47.2594937,140.194937 C47.6658228,139.496203 47.6658228,138.994937 48.064557,138.394937 C47.9658228,138.296203 47.8632911,138.296203 47.7607595,138.193671 C47.164557,138.603797 46.564557,139.105063 45.964557,139.503797 C46.1658228,139.701266 46.1658228,139.807595 46.1658228,140.005063 C45.3683544,139.902532 45.064557,140.308861 44.6658228,141.402532 C44.5670886,141.706329 44.0658228,141.805063 43.564557,142.2 C43.4658228,142.405063 43.3670886,142.906329 43.1658228,143.403797 L43.2683544,143.510127 C43.0670886,143.711392 42.7670886,143.813924 42.7670886,143.813924 C42.1670886,144.410127 41.4683544,144.91519 40.8683544,145.511392 C40.7696203,145.81519 40.6708861,146.111392 40.6708861,146.411392 C41.3734177,145.712658 42.5696203,144.410127 43.4696203,143.608861 L43.5721519,143.711392 C43.9708861,143.111392 44.2708861,142.511392 44.6734177,141.911392 C44.7683544,142.010127 44.7683544,142.108861 44.8708861,142.21519 C44.5670886,143.012658 44.2708861,143.908861 43.9708861,144.710127 C43.7620253,144.808861 43.4620253,145.013924 43.4620253,144.911392 C43.0632911,145.21519 42.7632911,145.610127 42.3607595,145.910127 L40.564557,147.110127 C39.5658228,148.010127 38.5670886,148.807595 37.4658228,149.711392 C36.7670886,150.812658 36.0683544,151.811392 35.2632911,153.113924 C36.4670886,152.810127 36.7670886,153.31519 36.6683544,154.317722 C38.0658228,154.51519 38.1683544,153.417722 38.5670886,152.616456 C38.6658228,152.411392 38.7683544,152.008861 38.9658228,151.910127 C39.8658228,151.112658 40.864557,150.413924 41.8632911,149.612658 C42.064557,149.411392 42.064557,149.005063 42.064557,148.708861 C42.064557,148.610127 41.5594937,148.610127 41.2594937,148.507595 C42.1594937,147.505063 43.4620253,145.811392 44.3582278,144.710127 C44.8594937,144.406329 45.356962,144.003797 45.356962,143.703797 C45.2582278,142.602532 45.956962,142.306329 46.7620253,141.903797 C46.3594937,141.6 46.256962,141.307595 46.256962,141.208861 L46.2607595,141.197468 Z" id="Shape"></path>
                <path d="M48.2658228,140.096203 C47.8670886,140.794937 47.4683544,141.394937 47.0696203,142.097468 L46.4696203,141.793671 C46.0708861,144.091139 44.6696203,146.092405 43.2721519,146.491139 C43.6708861,146.692405 44.0696203,146.893671 44.3734177,146.794937 C44.6696203,146.692405 44.8670886,146.187342 45.0683544,145.891139 L47.764557,141.987342 L48.6683544,140.483544 L48.2696203,140.08481 L48.2658228,140.096203 Z M14.9924051,184.025316 C15.4936709,184.025316 15.9949367,184.124051 16.5873418,184.124051 C16.5873418,183.725316 17.0924051,183.820253 17.0924051,183.425316 L17.3962025,183.425316 C17.3962025,183.926582 17.4949367,184.325316 17.4949367,184.83038 L15.3987342,184.83038 C15.2962025,184.727848 14.8974684,184.124051 14.9962025,184.025316 L14.9924051,184.025316 Z M14.1949367,179.422785 C13.8911392,179.118987 13.3974684,178.822785 13.3974684,178.522785 C13.2949367,178.127848 13.5949367,177.63038 13.8911392,177.129114 C14.0962025,177.827848 14.1949367,178.427848 14.3924051,179.13038 C14.2898734,179.225316 14.1911392,179.327848 14.1911392,179.426582 L14.1949367,179.422785 Z M16.6936709,173.016456 C17.0924051,174.026582 17.4911392,175.127848 17.8936709,176.13038 C17.6096426,176.223245 17.3409118,176.357611 17.0962025,176.529114 C16.6974684,175.526582 16.1962025,174.425316 15.7974684,173.426582 C16.0674503,173.233428 16.3735172,173.096538 16.6974684,173.024051 L16.6936709,173.016456 Z M239.149367,268.689873 C239.643038,268.492405 240.243038,268.386076 241.048101,268.196203 C240.144304,268.891139 239.44557,269.392405 238.84557,269.992405 C238.743038,269.893671 238.644304,269.791139 238.541772,269.791139 C238.743038,269.392405 238.944304,269.092405 239.149367,268.689873 Z M116.316456,57.243038 C116.912658,56.8405063 117.417722,56.5405063 118.013924,56.1417722 L118.211392,56.3392405 C117.603797,57.1367089 117.110127,57.9341772 116.407595,58.9405063 C116.308861,58.2455696 116.308861,57.8392405 116.206329,57.3455696 C116.107595,57.3455696 116.206329,57.3455696 116.308861,57.2468354 L116.316456,57.243038 Z M145.594937,107.874684 C146.494937,107.472152 147.394937,107.077215 148.492405,106.572152 C148.393671,107.172152 148.393671,107.574684 148.393671,107.977215 C148.071265,107.860396 147.733521,107.791312 147.391139,107.772152 C146.791139,107.874684 145.689873,108.675949 145.188608,108.774684 C145.093671,108.774684 145.591139,107.977215 145.591139,107.874684 L145.594937,107.874684 Z M220.556962,192.732911 C220.75443,193.731646 222.653165,194.232911 220.75443,195.231646 C221.058228,195.440506 221.350633,195.535443 221.650633,195.740506 C221.626817,195.891498 221.557995,196.03179 221.453165,196.143038 C221.251899,196.237975 220.853165,196.439241 220.655696,196.332911 C220.553165,196.332911 220.351899,195.937975 220.351899,195.736709 C220.351899,194.836709 220.45443,193.936709 220.553165,192.736709 L220.556962,192.732911 Z" id="Shape"></path>
            </g>
        </g>
    </g>
</svg>