<?xml version="1.0" encoding="UTF-8"?>
<svg width="379px" height="273px" viewBox="0 0 379 273" version="1.1" xmlns="http://www.w3.org/2000/svg" xmlns:xlink="http://www.w3.org/1999/xlink">
    <!-- Generator: Sketch 49.3 (51167) - http://www.bohemiancoding.com/sketch -->
    <title>awesome</title>
    <desc>Created with Sketch.</desc>
    <defs></defs>
    <g id="Page-1" stroke="none" stroke-width="1" fill="none" fill-rule="evenodd">
        <g id="awesome" fill="#21C7B4" fill-rule="nonzero">
            <path d="M41.062,43.591 L14.932,43.591 L10.649,53.096 L0.44,53.096 L22.857,2.692 L33.138,2.692 L55.555,53.096 L45.275,53.096 L41.062,43.591 Z M27.998,13.276 L18.717,34.734 L37.279,34.734 L27.998,13.276 Z M106.382,53.096 L98.386,53.096 L92.175,37.254 L86.892,21.341 L81.681,37.399 L75.612,53.096 L67.616,53.096 L49.267,2.692 L59.834,2.692 L71.614,39.055 L83.751,2.692 L89.89,2.692 L102.384,39.055 L113.807,2.692 L124.373,2.692 L106.382,53.096 Z M167.416,53.096 L130.007,53.096 L130.007,2.692 L167.416,2.692 L167.416,11.909 L139.358,11.909 L139.358,23.502 L166.417,23.502 L166.417,32.358 L139.358,32.358 L139.358,43.736 L167.416,43.736 L167.416,53.096 Z M207.034,14.86 C205.32,11.98 200.608,9.244 195.183,9.244 C188.186,9.244 184.83,12.196 184.83,15.94 C184.83,20.333 189.97,21.556 195.967,22.277 C206.392,23.573 216.101,26.309 216.101,38.334 C216.101,49.567 206.247,54.392 195.112,54.392 C184.903,54.392 177.05,51.224 173.337,42.007 L181.191,37.903 C183.403,43.448 189.186,45.896 195.255,45.896 C201.181,45.896 206.749,43.807 206.749,38.334 C206.749,33.582 201.823,31.638 195.184,30.918 C184.975,29.693 175.55,26.957 175.55,15.652 C175.55,5.283 185.689,1.035 194.897,0.963 C202.68,0.963 210.748,3.195 214.532,10.972 L207.034,14.86 Z M272.495,28.182 C272.353,41.215 264.43,54.248 246.866,54.248 C229.304,54.248 221.164,41.503 221.164,28.254 C221.164,15.005 229.589,1.684 246.866,1.684 C264.071,1.684 272.638,15.005 272.495,28.182 Z M230.446,28.397 C230.66,36.678 235.086,45.535 246.866,45.535 C258.646,45.535 263.073,36.606 263.216,28.325 C263.359,19.829 258.647,10.324 246.866,10.324 C235.085,10.324 230.231,19.9 230.446,28.397 Z M322.966,16.589 L306.688,38.479 L304.832,38.479 L288.912,16.517 L288.912,53.168 L279.488,53.168 L279.488,2.764 L290.34,2.764 L305.975,24.438 L321.61,2.764 L332.391,2.764 L332.391,53.168 L322.967,53.168 L322.967,16.589 L322.966,16.589 Z M378.504,53.096 L341.093,53.096 L341.093,2.692 L378.504,2.692 L378.504,11.909 L350.446,11.909 L350.446,23.502 L377.504,23.502 L377.504,32.358 L350.446,32.358 L350.446,43.736 L378.504,43.736 L378.504,53.096 Z" id="Shape"></path>
            <g id="Logo" transform="translate(89.000000, 75.000000)">
                <path d="M39.1063291,82.5898734 C39.3746835,82.7924051 39.8405063,82.9240506 39.3746835,83.3240506 C39.0405063,83.7898734 38.6405063,84.1898734 38.3746835,84.7240506 C38.1088608,85.1924051 37.9088608,85.3240506 37.5088608,84.9924051 C38.0405063,84.1240506 38.5721519,83.321519 39.1037975,82.5873418 L39.1063291,82.5898734 Z M173.017722,152.506329 C173.017722,152.703797 173.083544,152.835443 173.083544,153.037975 C173.217722,152.772152 173.217722,152.637975 173.286076,152.506329 L173.017722,152.506329 Z M173.017722,153.103797 L173.017722,153.037975 L173.017722,153.103797 Z M159.427848,179.121519 L147.832911,114.812658 C147.635443,114.749367 147.36962,114.617722 146.901266,114.483544 C147.035443,114.749367 147.103797,114.949367 147.16962,115.149367 C147.498734,115.083544 147.635443,115.083544 147.767089,115.017722 C147.767089,114.951899 147.767089,114.886076 147.835443,114.81519 L159.43038,179.129114 L159.427848,179.121519 Z M147.435443,100.336709 C147.36962,100.534177 147.36962,100.736709 147.36962,100.936709 C147.36962,100.734177 147.36962,100.531646 147.440506,100.334177 L147.435443,100.336709 Z M147.501266,101.668354 C147.435443,101.668354 147.435443,101.668354 147.36962,101.597468 L147.36962,101.663291 C147.440506,101.729114 147.440506,101.729114 147.506329,101.663291 L147.501266,101.668354 Z M147.36962,102.2 L147.36962,101.731646 C147.174684,101.797468 146.974684,101.797468 146.706329,101.865823 C147.040506,101.992405 147.374684,102.063291 147.374684,102.194937 L147.36962,102.2 Z" id="Shape"></path>
                <path d="M199.265823,85.9924051 C199.134177,83.3898734 199.068354,80.7873418 198.8,78.1873418 C198.334177,74.6506329 197.868354,71.0481013 197.068354,67.5797468 C196.468354,64.7113924 195.473418,61.9746835 194.470886,59.2405063 C193.205063,56.0379747 191.939241,52.7696203 190.339241,49.7012658 C187.741772,44.764557 184.344304,40.3594937 181.212658,35.756962 C179.141772,32.8202532 176.478481,30.4202532 174.478481,27.4177215 C173.346835,25.6835443 171.681013,24.2177215 170.01519,22.8860759 C167.349367,20.7468354 164.551899,18.8101266 161.75443,16.9443038 C159.643187,15.4638912 157.46357,14.083467 155.222785,12.8075949 C153.425316,11.8025316 151.493671,11.0025316 149.627848,10.1341772 C147.496203,9.13417722 145.43038,7.93164557 143.032911,7.46582278 C142.43038,7.33924051 141.898734,7.13670886 141.298734,6.93417722 C139.767089,6.40253165 138.301266,5.80253165 136.767089,5.33417722 C134.437975,4.6 132.172152,3.73417722 129.772152,3.13164557 C127.448101,2.53164557 125.048101,2.13417722 122.648101,1.79746835 C119.98481,1.40506329 117.255696,1.26582278 114.587342,1.00506329 C112.884141,0.785003861 111.173207,0.629617932 109.458228,0.539240506 C106.926582,0.405063291 104.329114,0.405063291 101.797468,0.339240506 C100.531646,0.270886076 99.2,0.136708861 97.9341772,0.205063291 C96.0025316,0.270886076 94.0708861,0.470886076 92.1367089,0.736708861 C90.2734177,0.939240506 88.4075949,1.26835443 86.6101266,1.53924051 C84.4151899,1.80506329 82.2177215,1.93924051 80.0177215,2.20759494 C77.9518987,2.47594937 75.8202532,2.87594937 73.756962,3.21012658 C73.0227848,3.3443038 72.2886076,3.61012658 71.5544304,3.74177215 C69.9594937,4.07594937 68.2936709,4.21012658 66.6936709,4.7443038 C63.8329114,5.61518987 60.964557,6.61772152 58.1670886,7.68101266 C55.5670886,8.74936709 53.035443,9.8835443 50.5721519,11.2177215 C48.0405063,12.6151899 45.6405063,14.2810127 43.243038,15.8860759 C40.9402705,17.4270236 38.6940723,19.0508729 36.5088608,20.7544304 C34.3822785,22.4253165 32.3822785,24.2911392 30.4481013,26.1594937 C29.3848101,27.2227848 28.5164557,28.4936709 27.5164557,29.6936709 C25.8531646,31.6303797 24.1873418,33.4962025 22.5873418,35.4987342 C21.2607595,37.1696203 20.0556962,38.9012658 18.7898734,40.6379747 C16.5291139,43.7012658 14.5974684,46.9721519 12.8,50.243038 C12.0658228,51.5772152 11.4,52.9113924 10.7341772,54.243038 C9.73417722,56.243038 8.66835443,58.1797468 7.73670886,60.2481013 C7.06835443,61.6506329 6.53670886,63.1848101 6.13670886,64.7189873 C5.20759494,67.9898734 4.27341772,71.3265823 3.40759494,74.5924051 C2.60759494,77.5291139 2.40759494,80.5974684 2.3443038,83.6 C2.27594937,86.2683544 2.54177215,88.8708861 2.80759494,91.5392405 C2.87594937,92.2075949 2.47848101,93.0075949 3.27341772,93.5392405 C3.00759494,94.2734177 3.20759494,94.678481 3.60253165,94.8050633 C3.14177215,95.5392405 3.80506329,96.0101266 3.54177215,96.678481 C3.47341772,96.8101266 3.7443038,97.0759494 3.87088608,97.2759494 C3.87088608,97.478481 3.80759494,97.7443038 3.87088608,97.9443038 C3.94177215,98.5443038 4.20759494,99.1443038 4.20759494,99.8126582 C4.20759494,100.278481 4.60506329,100.812658 4.73924051,101.281013 C4.80506329,101.478481 4.73924051,101.812658 4.60506329,101.946835 C4.20506329,102.412658 4.27088608,102.812658 4.87088608,103.081013 C5.20759494,103.946835 5.07341772,104.346835 5.00759494,104.751899 C5.13924051,105.349367 4.93924051,105.549367 5.00759494,105.683544 C5.53924051,106.751899 5.74177215,107.951899 5.80506329,109.151899 C5.80506329,109.420253 5.93924051,109.688608 6.07341772,110.020253 C6.13924051,110.020253 6.07341772,111.286076 6.07341772,111.286076 C6.40253165,111.088608 6.67341772,111.022785 7.00506329,110.888608 C7.20759494,111.75443 7.40506329,112.559494 7.67088608,113.293671 C8.00506329,113.825316 8.00506329,114.088608 7.87341772,114.15443 C8.13924051,115.35443 8.27088608,116.488608 8.73417722,117.622785 C8.73417722,116.356962 8.60759494,115.091139 8.40506329,113.888608 C9.33670886,114.222785 10.1367089,114.55443 10.6708861,114.55443 C10.7392405,114.351899 10.8050633,114.088608 10.8734177,113.95443 C10.4734177,113.556962 10.1392405,112.956962 9.73924051,112.556962 C9.87341772,113.088608 9.73924051,113.291139 9.73924051,113.493671 C9.47341772,113.356962 9.13924051,113.222785 8.80759494,113.088608 C9.07341772,112.759494 9.33924051,112.422785 9.73924051,112.025316 C9.73924051,111.422785 9.41012658,110.886076 8.47341772,110.95443 C8.87341772,110.822785 9.27341772,110.625316 9.73924051,110.488608 C10.4734177,110.091139 9.67341772,109.356962 9.67341772,108.422785 C9.73924051,107.291139 9.07341772,106.156962 8.87341772,104.95443 C8.53924051,103.088608 8.60759494,100.286076 8.40759494,98.4177215 C8.00759494,98.0835443 7.67341772,98.9493671 7.60759494,99.0177215 C7.81012658,100.617722 8.00759494,102.217722 8.13924051,103.820253 C7.74177215,102.486076 7.47341772,101.017722 7.14177215,99.4151899 C7.07341772,99.8835443 7.00759494,100.083544 7.00759494,100.351899 C6.67848101,100.681013 6.94177215,101.086076 7.14177215,101.551899 C6.67594937,101.349367 6.14177215,101.420253 6.14177215,101.420253 L6.14177215,103.288608 C5.47848101,102.620253 5.28101266,102.088608 4.9443038,101.617722 C4.81265823,101.086076 4.74177215,100.55443 4.61518987,100.022785 C4.74177215,99.6860759 4.61518987,99.4860759 4.61518987,99.2886076 C4.53697944,98.7549911 4.46945537,98.2198628 4.41265823,97.6835443 C4.47848101,97.6177215 4.34683544,96.6202532 4.34683544,96.6202532 C4.87848101,96.6835443 5.21518987,96.7468354 5.54683544,96.7468354 C4.88101266,95.8860759 5.3443038,95.3493671 5.61518987,94.8151899 C5.74936709,94.5468354 6.21518987,94.4860759 6.34936709,94.2126582 C6.88101266,93.2126582 7.74936709,92.4151899 7.74936709,91.1443038 C7.74936709,90.5443038 7.95189873,89.878481 8.01518987,89.2759494 C8.14936709,88.1417722 8.28101266,87.0075949 8.3443038,85.8734177 C8.48101266,84.4050633 8.3443038,82.9367089 8.68101266,81.5367089 C9.21772152,79.2075949 9.8835443,76.8708861 10.6151899,74.5341772 C11.1468354,72.8632911 11.7493671,71.2683544 12.4126582,69.5974684 C13.4126582,66.9949367 14.3468354,64.3924051 15.6126582,61.9265823 C17.4101266,58.321519 19.4759494,54.8531646 21.4759494,51.3189873 C22.7417722,49.1164557 24.0734177,47.0481013 25.4759494,44.9139241 C26.8050633,42.8455696 28.1341772,40.7113924 29.6708861,38.7746835 C31.7803959,36.0428656 34.1455246,33.5183663 36.7341772,31.235443 C39.4,28.835443 41.9316456,26.3670886 44.7949367,24.164557 C48.5216659,21.2912947 52.4900571,18.7459338 56.6556962,16.556962 C60.0556962,14.7594937 63.5848101,13.3518987 67.1164557,12.0177215 C69.3822785,11.1518987 71.8455696,10.7518987 74.1797468,10.0177215 C76.843038,9.14936709 79.5088608,8.75189873 82.3063291,8.6835443 C84.1037975,8.61518987 85.8379747,8.41518987 87.635443,8.21518987 C89.235443,8.08860759 90.8329114,7.95189873 92.5670886,7.75189873 C92.364557,8.01772152 92.2987342,8.15189873 92.2329114,8.2835443 C91.5037975,9.35189873 90.7037975,10.4202532 89.9696203,11.4860759 C89.3696203,12.3544304 88.7037975,13.2886076 88.1037975,14.1544304 C87.035443,15.5594937 85.9012658,16.9594937 84.9037975,18.4278481 C83.3721519,20.6303797 81.9721519,22.8987342 80.3721519,25.0987342 C78.7772152,27.2329114 77.043038,29.235443 75.3772152,31.3012658 C73.1797468,34.1721519 71.1139241,37.1063291 68.9164557,39.9746835 C66.9164557,42.7088608 64.7898734,45.3164557 62.8556962,48.0506329 C61.1240506,50.4481013 59.5898734,52.9873418 57.9240506,55.4506329 C55.4607595,59.121519 52.9949367,62.721519 50.5316456,66.3924051 C48.5978234,69.1865846 46.6433395,71.9664076 44.6683544,74.7316456 C44.5341772,74.9341772 44.3341772,74.9949367 44.1367089,75.1291139 C43.6050633,75.9949367 43.6050633,76.4632911 43.4025316,76.8632911 C42.8708861,77.8632911 42.3392405,78.8632911 41.7367089,79.8 C41.4025316,80.3316456 40.9367089,80.7974684 40.5367089,81.3316456 C40.4708861,80.5316456 41.6,80.1316456 41.0683544,79.1291139 C40.7392405,79.6658228 40.4025316,80.1316456 40.0708861,80.6658228 L39.2708861,82.2607595 C39.5367089,82.4632911 40.0050633,82.5974684 39.5367089,82.9949367 C39.3341772,83.3316456 39.1367089,83.7291139 38.9367089,84.0658228 C39.2250789,83.8962854 39.4750862,83.6686926 39.6708861,83.3974684 C39.6708861,84.1316456 39.2708861,84.7291139 38.9367089,85.3291139 C38.6708861,85.8607595 38.0050633,86.2658228 37.5392405,86.6632911 C37.6050633,86.7316456 38.0708861,86.9316456 38.1392405,86.9974684 C38.7392405,86.7949367 38.9392405,86.4658228 39.0075949,86.6632911 C39.2101266,86.3974684 39.4075949,86.1974684 39.4734177,85.9974684 C39.7367089,85.3291139 40.1367089,84.7974684 40.8025316,84.5291139 C41.0708861,84.3949367 41.2683544,84.1949367 41.4683544,83.9974684 C43.4683544,81.9265823 45.5341772,79.9265823 47.3316456,77.7240506 C50.1316456,74.3189873 52.6632911,70.7873418 55.3316456,67.3189873 C56.4607595,65.8506329 57.7949367,64.3822785 58.9924051,62.9797468 C59.1898734,64.5139241 59.0582278,65.9797468 58.9924051,67.3848101 C58.7898734,69.8506329 58.6582278,72.321519 58.4607595,74.8531646 C58.3924051,75.8531646 58.4607595,76.8531646 58.3924051,77.8556962 C58.3924051,78.121519 58.1898734,78.321519 58.1898734,78.5898734 C58.1898734,79.2556962 58.3924051,79.9898734 58.3924051,80.6582278 C58.1898734,83.1265823 57.921519,85.5265823 57.721519,87.9949367 C57.6531646,88.5265823 57.9189873,89.0632911 58.0506329,89.5316456 C57.721519,93.1316456 58.4556962,96.9367089 57.8531646,100.739241 C58.3189873,100.005063 58.4531646,99.5392405 58.4531646,99.0734177 C58.5164557,98.6734177 58.4531646,98.2734177 58.4531646,97.8075949 L58.4531646,97.1392405 C58.5164557,95.9367089 58.7822785,94.6708861 58.6506329,93.4683544 C58.5164557,92.1341772 58.5164557,90.8683544 58.7848101,89.6 C58.9189873,89.0683544 58.7189873,88.4 59.0531646,87.7316456 L59.0531646,88.7316456 C58.9873418,92.5291139 59.121519,96.3341772 58.5898734,100.136709 C58.521519,100.470886 58.7924051,101.073418 58.0582278,101.005063 C57.4556962,102.205063 58.1898734,103.073418 57.5265823,103.739241 C57.3898734,103.873418 57.6531646,104.473418 57.721519,104.873418 C57.4531646,105.675949 57.4531646,105.675949 57.8531646,105.741772 C57.9189873,107.210127 58.0556962,108.541772 58.1189873,109.944304 C59.1822785,107.412658 58.6506329,104.805063 59.121519,102.202532 C59.1873418,103.270886 59.2556962,104.339241 59.1873418,105.468354 C59.1873418,107.207595 59.121519,108.873418 59.0556962,110.607595 C59.0556962,110.941772 58.9873418,111.275949 58.921519,111.610127 C58.7189873,112.546835 58.6556962,113.478481 58.321519,114.344304 C58.0556962,115.012658 58.1898734,116.01519 58.1898734,116.812658 L58.1898734,119.351899 C58.4556962,120.486076 58.121519,121.086076 58.321519,121.751899 C58.1189873,122.422785 58.0556962,122.622785 58.1189873,122.822785 L58.321519,123.822785 C59.6556962,123.688608 59.0556962,124.691139 59.5873418,125.222785 C59.1873418,125.759494 59.321519,125.956962 59.321519,126.227848 C59.321519,126.827848 59.2582278,127.362025 59.1898734,127.962025 C59.1898734,129.496203 59.1240506,131.03038 59.1240506,132.498734 C59.1240506,132.701266 59.1898734,132.896203 59.1898734,133.096203 C59.1898734,133.232911 59.1240506,134.96962 59.1240506,134.96962 C59.2582278,135.167089 59.1240506,135.367089 58.921519,135.567089 C58.8582278,135.567089 58.6582278,127.093671 58.6582278,127.093671 L57.6582278,127.093671 C57.5265823,131.093671 57.8607595,134.696203 57.1265823,138.435443 C56.3265823,138.498734 56.0632911,138.632911 55.1924051,138.632911 C53.1265823,138.632911 51.0607595,138.632911 48.9949367,138.698734 C46.5291139,138.698734 44.1341772,138.764557 41.6658228,138.764557 C40.4708861,138.764557 39.2050633,138.901266 38.0050633,138.901266 C36.4050633,138.901266 34.7392405,138.698734 33.1443038,138.698734 C30.6759494,138.698734 28.278481,138.901266 25.8126582,138.967089 C24.0151899,139.032911 22.2177215,139.032911 20.4202532,139.101266 C19.2177215,139.164557 18.0151899,139.227848 16.8202532,139.364557 C16.2886076,139.43038 15.8202532,139.63038 15.1544304,139.83038 C14.9518987,139.83038 14.4886076,139.764557 14.0911392,139.83038 C13.4202532,139.964557 12.8253165,140.362025 12.1544304,140.498734 C11.1544304,140.701266 10.8886076,140.964557 11.0202532,141.967089 L11.0202532,142.632911 C10.9544304,142.764557 12.4886076,142.43038 12.4886076,142.43038 C12.3518987,142.43038 12.2860759,142.83038 12.0835443,143.164557 C12.6202532,142.962025 12.9518987,142.83038 13.2860759,142.698734 C14.2860759,143.167089 15.1518987,142.901266 15.9493671,143.103797 C18.5468354,143.767089 21.2101266,144.040506 23.8734177,144.301266 C25.6075949,144.435443 27.2734177,144.503797 29.0050633,144.567089 C31.4683544,144.701266 33.9341772,144.835443 36.3974684,144.835443 C38.4632911,144.835443 40.4632911,144.632911 42.5240506,144.632911 C45.3848101,144.632911 48.2556962,144.764557 51.1189873,144.835443 C51.7189873,144.835443 52.3848101,144.764557 53.0506329,144.764557 L57.9113924,144.764557 C62.2455696,144.632911 66.5746835,144.562025 70.9063291,144.435443 C73.3746835,144.364557 75.9063291,144.232911 78.3696203,144.164557 L85.964557,143.962025 C88.8962025,143.896203 91.8278481,143.896203 94.6936709,143.835443 C96.8911392,143.835443 99.0227848,143.759494 101.225316,143.696203 C103.686076,143.63038 106.217722,143.43038 108.683544,143.298734 C110.017722,143.23038 111.351899,143.096203 112.683544,142.964557 C114.283544,142.832911 115.949367,142.635443 117.544304,142.567089 C119.944304,142.43038 122.410127,142.364557 124.810127,142.23038 C127.807595,142.032911 130.805063,141.767089 133.868354,141.698734 C136.668354,141.567089 139.531646,141.632911 142.331646,141.567089 C144.797468,141.498734 147.263291,141.364557 149.794937,141.298734 L153.997468,141.096203 C153.997468,141.096203 156.792405,141.03038 158.192405,140.893671 C160.589873,140.762025 162.987342,140.496203 165.387342,140.43038 C166.916456,140.362025 168.450633,140.43038 169.982278,140.362025 C172.44557,140.296203 174.977215,140.159494 177.443038,140.159494 C178.372152,140.159494 179.372152,140.296203 180.572152,140.362025 C180.040506,140.83038 179.706329,141.096203 179.306329,141.43038 C179.572152,141.496203 179.837975,141.632911 180.106329,141.764557 C179.795649,141.984001 179.423363,142.099232 179.043038,142.093671 C178.906329,142.43038 178.772152,142.564557 178.637975,143.232911 L179.837975,143.232911 C179.372152,143.232911 178.972152,143.832911 178.506329,144.232911 C177.974684,144.096203 177.506329,144.232911 177.240506,144.967089 C177.706329,145.23038 177.640506,145.43038 177.574684,145.701266 C176.774684,145.964557 176.174684,146.232911 176.511392,147.098734 C176.240506,147.23038 175.908861,147.364557 175.574684,147.564557 C175.24557,148.096203 174.643038,148.23038 174.774684,148.964557 C175.043038,149.027848 175.306329,149.167089 175.508861,149.227848 C175.174684,149.362025 174.843038,149.562025 174.508861,149.693671 C173.311392,150.427848 173.84557,150.762025 174.111392,151.096203 C173.908861,151.23038 173.711392,151.362025 173.511392,151.43038 C173.643038,152.03038 173.840506,152.164557 173.908861,152.164557 C173.568335,152.422107 173.234879,152.688873 172.908861,152.964557 C172.706329,153.564557 172.440506,153.83038 172.174684,154.23038 C171.908861,154.63038 171.774684,155.167089 171.440506,155.564557 C170.043038,157.101266 169.043038,158.906329 167.24557,160.103797 C166.577215,160.572152 165.979747,161.172152 165.379747,161.774684 C164.179747,162.906329 163.113924,164.174684 161.848101,165.243038 C160.174331,166.62915 158.441047,167.941784 156.653165,169.177215 C154.471526,170.712327 152.273939,172.224645 150.060759,173.713924 C148.860759,174.511392 147.529114,175.111392 146.263291,175.84557 C144.997468,176.579747 143.797468,177.248101 142.531646,177.979747 C141.731646,178.511392 140.997468,179.24557 140.131646,179.650633 C137.934177,180.587342 135.6,181.38481 133.336709,182.253165 C131.134177,183.189873 129.539241,183.987342 127.873418,184.587342 C126.341772,185.118987 124.741772,185.524051 123.144304,185.853165 C122.612658,185.989873 122.010127,185.853165 121.410127,185.921519 C120.275949,186.124051 119.144304,186.392405 118.010127,186.524051 C115.078481,186.924051 112.146835,187.192405 109.217722,187.592405 C107.483544,187.794937 105.817722,188.124051 104.086076,188.326582 C102.888608,188.392405 101.622785,188.260759 100.422785,188.260759 C99.556962,188.260759 98.6253165,188.463291 97.756962,188.329114 C96.3594937,188.126582 94.9594937,187.797468 93.5594937,187.529114 C93.2303797,187.463291 92.7594937,187.326582 92.4962025,187.463291 C91.964557,187.731646 91.4936709,187.331646 90.9594937,187.463291 C90.6303797,187.531646 90.2962025,187.260759 89.9620253,187.260759 C89.6936709,187.197468 89.3594937,187.331646 89.0253165,187.260759 C88.2911392,187.063291 87.6278481,186.797468 86.8227848,186.863291 C86.0303797,186.929114 85.2278481,186.529114 84.3670886,186.331646 C83.164557,186.063291 82.0379747,185.8 80.8329114,185.529114 C80.3672158,185.383662 79.9209099,185.182187 79.5037975,184.929114 C77.7696203,184.929114 76.635443,184.863291 75.5696203,184.460759 C74.6379747,184.131646 73.7721519,183.663291 72.7721519,183.797468 C72.5088608,183.863291 72.3088608,183.731646 72.0379747,183.731646 C71.835443,183.463291 71.6405063,182.929114 71.443038,182.929114 C70.1113924,182.997468 69.3113924,181.865823 68.1772152,181.529114 C67.5797468,181.326582 67.1139241,180.660759 66.5139241,180.460759 C65.0455696,179.860759 63.8506329,178.594937 62.1848101,178.394937 C61.6531646,178.326582 61.121519,178.060759 60.5189873,177.863291 C60.721519,178.126582 60.8481013,178.326582 61.0506329,178.526582 C59.1189873,177.589873 57.321519,176.526582 55.521519,175.524051 C55.2582278,175.458228 55.0582278,175.194937 54.8582278,175.058228 L53.0607595,173.858228 C52.0607595,174.060759 51.6607595,173.655696 51.3898734,173.524051 C49.5924051,172.258228 47.5291139,171.455696 45.7949367,170.055696 C45.0607595,169.453165 44.2,169.053165 43.6683544,168.318987 C42.7316456,167.18481 41.6,166.38481 40.3341772,165.718987 C39.3367089,165.187342 38.4050633,164.58481 37.4734177,163.98481 C37.0050633,163.650633 36.5367089,163.250633 36.5367089,162.516456 C36.5367089,162.048101 36.3392405,161.579747 35.7392405,161.848101 C35.4734177,161.448101 35.2075949,160.982278 34.8734177,160.848101 C34.0734177,160.518987 33.5417722,159.911392 32.9417722,159.379747 C32.3417722,158.848101 31.878481,158.113924 31.1443038,157.848101 C29.8101266,157.316456 29.0101266,156.182278 28.2126582,155.248101 C26.3443038,153.04557 24.678481,150.640506 22.9468354,148.311392 C22.8126582,148.108861 22.5468354,147.974684 22.3468354,147.774684 C22.6126582,148.508861 22.9468354,149.108861 23.278481,149.774684 C22.6151899,149.508861 22.1493671,149.040506 21.7493671,148.574684 C21.6810127,148.643038 26.3443038,156.313924 26.3443038,156.313924 C26.7493671,156.913924 27.078481,157.516456 27.478481,158.116456 C26.6580681,158.192762 25.8712082,157.772439 25.478481,157.048101 C24.8810127,155.98481 24.2126582,155.316456 22.8810127,155.453165 C22.739685,154.971341 22.6297497,154.480861 22.5518987,153.98481 C22.2810127,153.98481 22.0835443,153.98481 21.6151899,153.916456 C22.5518987,155.38481 23.3493671,156.650633 24.2151899,158.118987 C23.878481,157.916456 23.6835443,157.78481 23.5443038,157.718987 C24.7417722,158.98481 25.6075949,160.587342 27.1392405,161.389873 C27.4734177,162.921519 29.2050633,163.655696 29.6050633,165.124051 C29.2759494,165.055696 29.0025316,164.989873 28.6683544,164.921519 C28.1367089,164.255696 27.5367089,163.589873 26.9392405,162.855696 C27.0708861,163.321519 27.2683544,163.721519 27.5367089,164.055696 C28.3367089,165.055696 29.0708861,166.055696 30.0025316,166.924051 C30.3367089,167.263291 30.8025316,167.397468 30.8025316,167.997468 C31.3341772,168.263291 31.5367089,168.326582 31.7341772,168.326582 C31.8708861,168.731646 31.6708861,169.331646 32.4683544,169.197468 C33,170.197468 33.5316456,170.197468 34.2658228,169.865823 C35.1341772,170.734177 35.6025316,170.802532 36.2,170.270886 C36.2,170.6 36.2658228,170.934177 36.2658228,171.202532 C36.5316456,171.068354 36.4683544,170.868354 36.4683544,170.534177 C36.7974684,170.8 37,170.934177 37.1316456,171.065823 C37.7974684,172.002532 38.3974684,172.868354 39.3291139,173.602532 C40.5949367,174.670886 41.7291139,175.805063 42.9240506,176.805063 C45.2582278,178.741772 47.8607595,180.344304 50.4556962,181.810127 C53.6556962,183.612658 56.721519,185.546835 59.9848101,187.278481 C63.9139241,189.349367 68.1113924,190.751899 72.4405063,191.751899 C74.0405063,192.086076 75.5721519,192.417722 77.1746835,192.81519 C78.5670886,193.220253 79.9696203,193.820253 81.3696203,194.151899 C83.5012658,194.620253 85.6987342,195.020253 87.8303797,195.417722 C88.2936709,195.486076 88.7670886,195.55443 89.2987342,195.620253 C89.8936709,195.75443 90.6253165,195.486076 90.7594937,195.688608 C91.0936709,196.220253 91.3594937,195.951899 91.7594937,195.886076 C92.2253165,195.751899 92.7594937,195.751899 93.2911392,195.751899 C95.156962,195.817722 96.9544304,196.217722 98.8202532,196.086076 C99.2253165,196.086076 99.8227848,195.749367 100.156962,196.41519 C100.75443,196.149367 101.088608,196.149367 101.35443,196.086076 C101.425316,196.683544 101.35443,196.683544 101.227848,196.749367 C101.091139,196.81519 100.891139,196.883544 100.625316,197.083544 C103.022785,197.549367 105.288608,197.61519 107.283544,197.083544 C110.751899,197.349367 113.749367,196.949367 116.61519,195.949367 C116.881013,196.283544 117.081013,196.749367 117.481013,196.083544 C117.612658,195.881013 117.946835,195.812658 118.21519,195.746835 C118.812658,195.612658 119.546835,195.346835 120.078481,195.544304 C120.681013,195.746835 120.881013,195.21519 121.344304,195.21519 C122.146835,195.21519 122.878481,195.146835 123.612658,195.012658 C124.012658,194.946835 124.412658,194.746835 124.878481,194.612658 C124.422116,194.38708 123.919181,194.271752 123.410127,194.275949 C124.212658,193.875949 124.944304,193.541772 125.678481,193.212658 C125.544304,193.410127 125.410127,193.675949 125.146835,193.675949 L126.075949,193.675949 C125.873418,193.675949 125.607595,194.275949 125.275949,194.675949 C127.670886,194.075949 129.868354,193.541772 132.002532,193.005063 C131.268354,191.607595 132.8,192.075949 133.334177,191.273418 C132.668354,191.475949 132.002532,191.673418 131.334177,191.805063 C133.6,190.673418 135.931646,189.673418 138.194937,188.673418 C137.865823,189.073418 137.460759,189.273418 136.865823,189.610127 C137.265823,189.673418 137.531646,189.673418 137.731646,189.736709 C138.794937,190.073418 138.531646,189.073418 138.863291,188.470886 C140.129114,188.470886 140.660759,188.273418 141.260759,188.070886 C141.926582,187.868354 142.592405,187.670886 143.260759,187.405063 C144.324051,186.939241 145.324051,186.341772 146.389873,185.810127 C146.592405,185.739241 146.921519,185.810127 147.189873,185.810127 C147.924051,185.339241 148.187342,184.939241 148.387342,185.005063 C149.324051,185.139241 149.982278,184.802532 150.250633,183.941772 C150.716456,183.605063 151.050633,183.339241 151.382278,183.136709 C152.84557,182.336709 154.243038,181.536709 155.711392,180.736709 C156.243038,180.736709 156.511392,180.736709 156.643038,180.668354 C157.513924,180.263291 158.313924,179.802532 159.111392,179.334177 C158.882552,179.239022 158.660142,179.129085 158.44557,179.005063 C159.108861,178.868354 159.306329,178.802532 159.711392,178.668354 C161.306329,176.794937 163.508861,175.529114 165.172152,174.060759 C165.906329,173.994937 165.906329,173.794937 165.906329,173.663291 C166.16962,173.329114 166.437975,172.929114 166.767089,172.660759 C168.235443,171.326582 169.83038,170.192405 171.164557,168.792405 C173.093722,166.870007 174.938497,164.864743 176.693671,162.782278 C178.288608,160.913924 179.893671,159.048101 181.225316,156.979747 C183.091139,154.111392 184.688608,151.174684 186.35443,148.16962 C187.55443,146.037975 188.620253,143.903797 189.822785,141.76962 C189.949367,141.567089 190.220253,141.301266 190.420253,141.301266 C192.217722,141.098734 194.020253,140.972152 195.751899,140.76962 C196.151899,140.703797 196.617722,140.440506 197.017722,140.237975 C196.81519,139.903797 196.683544,139.503797 196.486076,139.16962 C196.217722,138.764557 195.817722,138.435443 195.549367,138.03038 C195.286076,137.701266 195.086076,137.296203 194.886076,136.898734 C194.683544,136.56962 194.486076,136.301266 194.286076,135.962025 C193.867634,135.227702 193.487381,134.472266 193.146835,133.698734 C193.081013,133.496203 192.944304,133.167089 193.01519,132.964557 C194.21519,130.364557 194.681013,127.562025 195.812658,124.959494 C196.944304,122.291139 197.281013,119.288608 197.812658,116.420253 C198.278481,113.686076 198.546835,110.951899 198.875949,108.217722 C199.078481,106.283544 199.344304,104.41519 199.407595,102.481013 C199.812658,99.4126582 199.675949,96.5417722 199.610127,93.6708861 C199.544304,91.1392405 199.407595,88.5367089 199.281013,86 L199.265823,85.9924051 Z M32.1139241,168.113924 C31.6481013,167.582278 31.2481013,166.979747 30.7822785,166.448101 L30.9848101,166.24557 C31.7113924,167.048101 32.4455696,167.848101 33.1772152,168.716456 C32.7772152,168.513924 32.3113924,168.382278 32.1139241,168.113924 Z M33.1772152,168.716456 C33.3797468,168.648101 33.5822785,168.648101 33.7797468,168.582278 C33.9822785,168.916456 34.1139241,169.316456 34.3113924,169.716456 C33.3797468,169.648101 32.9139241,169.248101 33.1797468,168.716456 L33.1772152,168.716456 Z M102.468354,196.268354 L102.468354,196.065823 C103.734177,195.934177 104.931646,195.8 106.197468,195.668354 L106.197468,195.863291 C104.931646,196.065823 103.734177,196.192405 102.468354,196.263291 L102.468354,196.268354 Z M119.253165,194.534177 C118.324051,194.736709 117.324051,194.870886 116.392405,195.005063 C116.058228,195.070886 115.658228,195.405063 115.526582,194.802532 C115.392405,194.870886 115.258228,194.870886 115.126582,194.939241 C115.455696,195.936709 116.258228,195.136709 116.924051,195.536709 C115.455696,195.739241 114.063291,195.870886 112.660759,196.068354 L112.660759,195.936709 C113.065823,195.870886 113.529114,195.802532 113.926582,195.734177 L113.926582,195.536709 C113.26264,195.457904 112.595101,195.41312 111.926582,195.402532 C111.731646,195.402532 111.463291,195.670886 111.263291,195.736709 C110.997468,195.802532 110.731646,195.870886 110.397468,195.870886 C109.265823,195.936709 108.134177,195.936709 107.065823,196.002532 C106.997468,196.002532 106.863291,195.936709 106.797468,195.936709 L106.797468,195.734177 C111.260759,195.136709 115.658228,194.536709 120.121519,193.936709 C120.189873,194.068354 120.189873,194.202532 120.255696,194.334177 C119.855696,194.334177 119.589873,194.473418 119.255696,194.536709 L119.253165,194.534177 Z M120.255696,193.870886 C121.789873,193.668354 123.192405,193.536709 124.655696,193.339241 C121.592405,194.205063 120.592405,194.336709 120.258228,193.870886 L120.255696,193.870886 Z M62.2278481,59.1746835 C64.3544304,56.2379747 66.556962,53.3012658 68.6886076,50.3012658 C69.3544304,49.4278481 69.8860759,48.4936709 70.5518987,47.6278481 C70.7544304,47.3594937 71.0202532,47.2278481 71.3518987,46.9594937 L71.2860759,46.8329114 C71.5518987,46.4962025 71.8177215,46.2253165 71.9518987,45.9620253 C72.2911392,45.4303797 72.4911392,44.8278481 72.756962,44.2278481 C72.8227848,44.1012658 73.0227848,43.9670886 73.0227848,43.9670886 C73.9594937,44.4329114 73.9594937,43.435443 74.2886076,43.0987342 C74.8886076,42.4303797 75.4886076,41.6987342 76.0202532,41.0303797 C76.4202532,40.4987342 76.8202532,40.0303797 77.1544304,39.4303797 C77.2202532,39.2278481 77.0202532,38.8987342 76.9518987,38.6278481 L76.7544304,38.6278481 C76.956962,38.4962025 77.1544304,38.2987342 77.3544304,38.1620253 C77.4202532,38.1620253 77.4202532,38.1620253 77.4860759,38.0962025 C77.8860759,37.4936709 78.2860759,36.8936709 78.6860759,36.3594937 C79.4835443,35.2962025 80.3493671,34.2278481 81.2810127,33.2962025 C81.1493671,33.6253165 81.0151899,33.9620253 80.8810127,34.2278481 C80.9493671,34.2278481 80.9493671,34.2962025 81.0151899,34.2962025 C81.8151899,33.2278481 82.6810127,32.2278481 83.4810127,31.156962 C83.4126582,31.0936709 83.3468354,31.0253165 83.278481,31.0253165 C82.9493671,31.3594937 82.6810127,31.6936709 82.3468354,32.0278481 C82.2810127,31.9594937 82.2151899,31.8936709 82.1443038,31.8936709 C82.8151899,31.0253165 83.4810127,30.1594937 84.1443038,29.1594937 C84.278481,29.3620253 84.4126582,29.6253165 84.6759494,30.1594937 C84.9468354,29.4936709 85.2126582,29.0278481 85.4101266,28.5594937 C85.2126582,28.7620253 84.9468354,28.9594937 84.7468354,29.1620253 L84.5443038,28.9594937 L85.7443038,27.1620253 C87.0101266,25.3594937 88.2759494,23.4911392 89.5417722,21.6886076 C90.0101266,21.0227848 90.6050633,20.4886076 91.0101266,19.8202532 C92.2759494,17.2886076 94.2759494,15.2835443 95.8050633,12.9493671 C96.1392405,12.4835443 96.6050633,12.0835443 97.0050633,11.6835443 C97.3341772,11.278481 97.6050633,11.4151899 97.8708861,11.7493671 C99.6683544,14.0177215 101.465823,16.3518987 103.263291,18.6202532 C104.6,20.2911392 105.931646,21.8860759 107.197468,23.6227848 C108.729114,25.7594937 110.194937,27.8936709 111.729114,30.0278481 C113.460759,32.4962025 115.192405,34.964557 116.858228,37.4962025 C119.389873,41.235443 121.787342,44.9721519 124.318987,48.7063291 C126.18481,51.4405063 128.050633,54.1113924 129.848101,56.8455696 L126.44557,56.8455696 C123.316456,56.7822785 120.116456,56.5164557 116.987342,56.6481013 C112.724051,56.8506329 108.394937,57.3164557 104.131646,57.6506329 C98.7341772,58.1189873 93.2708861,58.1822785 87.878481,58.1822785 C85.9417722,58.1822785 84.0101266,58.4531646 82.0810127,58.5873418 C79.7468354,58.7189873 77.4810127,58.8531646 75.1493671,58.9164557 C72.4151899,59.0531646 69.756962,59.1189873 67.0227848,59.1873418 C65.4886076,59.2531646 63.8911392,59.1873418 62.2253165,59.1873418 L62.2278481,59.1746835 Z M138.640506,89.8582278 L138.640506,90.4607595 C138.574684,90.4607595 138.508861,90.5291139 138.374684,90.5291139 C138.108861,89.5924051 137.843038,88.5898734 137.508861,87.6556962 C136.843038,85.7189873 136.108861,83.7822785 134.908861,82.0506329 C133.572152,80.1848101 132.377215,78.2531646 131.040506,76.3164557 C130.711392,75.8481013 130.240506,75.4481013 129.840506,75.0506329 C128.440506,73.5139241 127.040506,71.9113924 125.243038,70.7797468 C122.594636,69.118558 119.807946,67.6887915 116.913924,66.5063291 C116.110407,66.1613712 115.332119,65.7603839 114.58481,65.3063291 L116.179747,65.3063291 L127.572152,65.1037975 C130.037975,65.0405063 132.437975,65.0405063 134.901266,64.9063291 C135.498734,64.9063291 135.832911,65.1088608 136.167089,65.6405063 C136.764557,66.6405063 137.364557,67.6405063 138.03038,68.643038 C138.098734,68.7746835 138.232911,68.9721519 138.232911,69.1746835 C138.232911,70.643038 138.232911,72.1772152 138.298734,73.6455696 C138.362025,75.1797468 138.501266,76.6481013 138.562025,78.1822785 C138.562025,79.7164557 138.427848,81.3164557 138.496203,82.9164557 C138.564557,85.1873418 138.63038,87.5240506 138.63038,89.8531646 L138.640506,89.8582278 Z M66.9544304,67.5189873 C70.0860759,67.3848101 73.0810127,67.1848101 76.1493671,67.0506329 C78.5417722,66.9164557 81.0101266,66.8481013 83.4050633,66.7164557 C84.4050633,66.6531646 85.3392405,66.5898734 86.3367089,66.7164557 C85.2734177,67.2531646 84.2050633,67.7873418 83.2734177,68.4531646 C82.0734177,69.2531646 80.9443038,70.3189873 79.7417722,71.1873418 C78.5392405,72.0531646 77.4734177,73.121519 76.4759494,74.2556962 C75.2101266,75.7873418 73.8101266,77.121519 72.4759494,78.5898734 C71.5392405,79.6582278 70.4759494,80.6582278 69.678481,81.7924051 C68.5468354,83.2607595 67.5468354,84.8556962 66.4810127,86.5265823 C66.8151899,80.1873418 67.2151899,73.9189873 66.9468354,67.5139241 L66.9544304,67.5189873 Z M110.460759,131.696203 C108.326582,132.227848 106.131646,132.83038 103.929114,133.096203 C102.065823,133.364557 100.131646,133.298734 98.2,133.298734 C96.4632911,133.298734 94.7974684,133.232911 93.0658228,133.096203 C91.1341772,132.898734 89.2025316,132.698734 87.3367089,131.83038 C85.7341772,131.096203 84.0708861,130.43038 82.4759494,129.627848 C80.8708861,128.827848 79.2734177,127.896203 78.0708861,126.427848 C77.2101266,125.356962 76.0075949,124.491139 74.9417722,123.556962 C75.1443038,124.356962 75.6075949,125.025316 76.3417722,125.491139 C76.0075949,125.891139 75.5417722,125.693671 74.8734177,124.622785 C74.6759494,124.756962 74.4759494,124.825316 74.3417722,124.891139 C74.5443038,124.422785 74.7417722,123.95443 74.9417722,123.556962 C74.6759494,123.025316 74.3417722,122.422785 74.0759494,121.886076 C73.5443038,121.020253 73.0126582,120.088608 72.5443038,119.220253 C72.4101266,119.017722 72.4101266,118.820253 72.278481,118.620253 C71.9459578,118.235633 71.6333135,117.834265 71.3417722,117.417722 C70.8101266,116.620253 70.3443038,115.75443 69.678481,114.951899 C69.678481,115.15443 69.7468354,115.351899 69.7468354,115.620253 C69.678481,115.620253 69.6126582,115.686076 69.6126582,115.686076 L68.2101266,112.283544 C68.1443038,112.283544 68.1443038,112.283544 68.078481,112.349367 L69.2759494,116.75443 C69.2101266,116.75443 69.1443038,116.817722 69.0734177,116.817722 C68.878481,116.55443 68.678481,116.286076 68.5417722,115.956962 C68.4101266,115.420253 68.0101266,115.420253 67.6810127,115.620253 C67.478481,115.75443 67.3443038,116.220253 67.4126582,116.420253 C67.8810127,117.55443 68.4126582,118.688608 68.9468354,119.822785 C69.078481,120.222785 69.2126582,120.556962 69.4126582,120.956962 C69.4810127,121.091139 69.6810127,121.222785 69.6810127,121.422785 C69.9493671,121.95443 70.1493671,122.486076 70.4810127,122.956962 C71.0810127,123.756962 71.7468354,124.556962 72.3468354,125.356962 C72.9417722,126.156962 73.4734177,127.027848 74.0075949,127.825316 C74.0734177,127.959494 74.2734177,127.959494 74.3367089,128.027848 C74.6734177,129.027848 75.8050633,129.759494 76.6050633,129.359494 C76.8075949,130.893671 78.4708861,131.427848 79.1367089,132.896203 C78.4828955,132.629371 77.8386195,132.339742 77.2050633,132.027848 C77.1367089,132.093671 77.1367089,132.159494 77.0683544,132.293671 C77.8683544,132.693671 78.6683544,133.093671 79.3974684,133.559494 C80.0683544,133.964557 80.7341772,134.362025 81.3341772,134.825316 C82.1341772,135.559494 83.0683544,135.964557 84.1949367,136.227848 C84.1341772,136.025316 84.0683544,135.956962 84.0683544,135.956962 C85.9316456,136.825316 87.8658228,137.759494 89.3291139,138.488608 C82.4,138.625316 75.0050633,138.759494 67.3417722,138.893671 C67.3417722,137.627848 67.2759494,136.425316 67.2759494,135.156962 C67.2759494,134.625316 67.4075949,134.156962 67.3392405,133.622785 C67.1367089,130.559494 67.1367089,127.486076 66.7392405,124.483544 C66.3417722,121.283544 66.3417722,118.146835 66.4101266,114.939241 C66.4734177,113.210127 66.3417722,111.410127 66.2734177,109.673418 C66.2734177,107.339241 66.2734177,105.065823 66.3443038,102.736709 C66.3443038,102.402532 66.478481,102.136709 66.6126582,101.8 L66.8151899,101.8 C66.878481,101.936709 66.8151899,102.136709 66.9417722,102.205063 C67.1443038,102.407595 67.478481,102.736709 67.6126582,102.670886 C68.0101266,102.402532 68.6101266,102.139241 68.7443038,101.734177 C69.0734177,100.936709 69.2101266,100.068354 69.2101266,99.2683544 C69.2101266,98.6708861 69.478481,98.2708861 69.7417722,97.8683544 C69.878481,97.6658228 69.9443038,97.4683544 70.078481,97.2025316 C69.8126582,97 69.5468354,96.8683544 69.2126582,96.6025316 C69.4810127,95.8683544 69.4151899,95 70.4151899,94.6025316 C70.5468354,94.5341772 70.5468354,94.1974684 70.6177215,94 C70.6810127,93.4607595 70.7443038,92.8607595 70.8151899,92.3291139 C70.9468354,92.5316456 71.0177215,92.5949367 71.1443038,92.7265823 C71.181939,92.6540425 71.2278114,92.5860833 71.2810127,92.5240506 C71.2810127,92.2607595 71.2151899,91.7265823 71.2810127,91.7265823 C72.0810127,91.5924051 71.7468354,90.7265823 72.1468354,90.3265823 C72.2101266,90.2556962 72.078481,90.0556962 72.078481,89.921519 C72.078481,89.7898734 72.078481,89.5924051 72.1443038,89.5924051 C73.0734177,89.3898734 72.9417722,88.3898734 73.5417722,87.921519 C73.7443038,87.7873418 73.8075949,87.5924051 74.0734177,87.2556962 C74.6050633,88.1873418 73.6734177,88.6556962 73.6075949,89.321519 C74.7367089,88.6556962 75.0708861,87.0556962 74.4050633,86.5873418 C74.6708861,86.3848101 74.9367089,86.121519 75.1392405,85.8531646 C75.8734177,85.0531646 76.6683544,84.3189873 77.3367089,83.5189873 C77.8050633,82.921519 78.0708861,82.1873418 78.5367089,81.5873418 C78.8050633,81.2531646 79.3367089,80.9873418 79.7367089,80.7848101 C80.9367089,80.121519 82.0658228,79.3873418 82.8,78.2531646 C82.9341772,78.1189873 83.1341772,77.9873418 83.3316456,77.8531646 C83.5341772,77.7189873 83.9341772,77.7189873 84,77.5189873 C84.0683544,77.3873418 83.8683544,77.0531646 83.7341772,76.8531646 C83.9974684,76.7189873 84.2658228,76.4531646 84.7974684,76.1848101 C84.5949367,76.5848101 84.5316456,76.8531646 84.3974684,77.121519 L84.7265823,77.4506329 C85.3291139,76.9848101 86.2607595,76.4531646 86.8607595,76.0531646 C86.8607595,75.9898734 86.5265823,75.7240506 86.5265823,75.7240506 C86.1291139,75.9265823 85.5291139,76.2556962 84.9316456,76.5240506 C85.0582278,76.321519 85.0582278,76.1898734 85.1341772,76.1240506 C86.0632911,75.5240506 86.9949367,74.9240506 87.9949367,74.4531646 C90.3240506,73.3898734 92.6582278,72.321519 94.9898734,71.321519 C95.3898734,71.1189873 95.9265823,71.2556962 96.3898734,71.2556962 C96.5873418,71.2556962 96.7189873,71.2556962 96.921519,71.1898734 C97.9848101,70.8556962 99.0531646,70.521519 100.118987,70.2531646 C100.582278,70.121519 101.113924,70.0556962 101.587342,70.0556962 C103.579747,70.1189873 105.579747,70.1189873 107.577215,70.2531646 C108.443038,70.3189873 109.243038,70.5189873 110.043038,70.7848101 C111.068608,71.1412471 112.069883,71.5640824 113.040506,72.0506329 C114.172152,72.6582278 115.237975,73.321519 116.306329,74.0556962 C118.237975,75.321519 120.035443,76.7240506 121.967089,77.8582278 C123.832911,78.9924051 125.298734,80.5265823 126.498734,82.2632911 C127.967089,84.3291139 129.63038,86.1974684 130.296203,88.7316456 L131.293671,93.1367089 C131.496203,93.9367089 131.962025,94.7367089 131.762025,95.6683544 C131.425316,97.3392405 131.159494,99.0734177 130.893671,100.741772 C130.762025,101.412658 130.627848,102.083544 130.696203,102.741772 C130.822785,104.817722 130.025316,106.61519 129.227848,108.483544 C128.959494,109.083544 128.559494,109.686076 128.227848,110.351899 C128.390833,110.467122 128.569995,110.557556 128.759494,110.620253 L129.359494,109.420253 C129.427848,109.420253 129.427848,109.420253 129.493671,109.488608 C129.159494,110.420253 128.893671,111.422785 128.556962,112.356962 C127.762025,114.425316 126.962025,116.559494 125.962025,118.559494 C125.43038,119.693671 124.493671,120.627848 123.83038,121.698734 C123.167089,122.63038 122.632911,123.63038 121.967089,124.498734 C121.367089,125.232911 120.76962,125.967089 119.967089,126.498734 C118.16962,127.832911 116.303797,129.167089 114.372152,130.235443 C113.174684,130.96962 111.774684,131.36962 110.443038,131.703797 L110.460759,131.696203 Z M74.9493671,128.151899 L74.8835443,128.220253 C74.7443038,128.15443 74.5443038,128.088608 74.4126582,127.95443 L72.8126582,125.549367 C72.6810127,125.351899 72.6101266,125.151899 72.6810127,124.886076 C73.4151899,126.020253 74.1493671,127.088608 74.9468354,128.151899 L74.9493671,128.151899 Z M116.392405,137.291139 C119.387342,136.025316 121.853165,134.227848 124.113924,132.156962 C124.450633,131.822785 124.782278,131.491139 125.182278,131.220253 C127.982278,129.488608 130.043038,127.086076 131.911392,124.417722 C134.043038,121.349367 135.443038,117.881013 137.177215,114.612658 C137.294789,114.360147 137.427521,114.114974 137.574684,113.878481 C137.440506,121.483544 138.308861,128.95443 139.306329,136.493671 C131.779747,136.759494 124.116456,137.025316 116.389873,137.293671 L116.392405,137.291139 Z M183.944304,135.291139 C183.878481,135.425316 183.741772,135.559494 183.678481,135.696203 C183.610127,135.559494 183.610127,135.359494 183.544304,135.088608 C183.144304,136.159494 182.278481,135.625316 181.678481,135.625316 C178.083544,135.693671 174.417722,135.693671 170.817722,135.693671 C167.35443,135.693671 163.825316,135.693671 160.362025,135.75443 C159.227848,135.75443 158.027848,136.020253 156.893671,136.088608 C154.164557,136.220253 151.432911,136.291139 148.701266,136.35443 C148.498734,136.35443 148.301266,136.025316 147.967089,135.756962 C147.849724,135.967159 147.715976,136.16778 147.567089,136.356962 C147.496203,136.225316 147.364557,136.093671 147.23038,135.893671 C147.164557,136.096203 147.096203,136.293671 147.027848,136.425316 L146.835443,136.425316 C146.701266,135.493671 146.435443,134.627848 146.435443,133.691139 C146.435443,131.691139 146.637975,129.691139 146.701266,127.686076 C146.76962,126.75443 146.701266,125.888608 146.701266,125.017722 C146.96962,125.220253 147.16962,125.35443 147.435443,125.549367 C147.567089,125.288608 147.701266,125.088608 147.835443,124.891139 C147.835443,124.891139 147.701266,124.820253 147.567089,124.688608 C147.693671,124.620253 147.83038,124.486076 147.83038,124.420253 C147.896203,124.217722 148.032911,124.020253 148.032911,123.888608 C148.032911,123.420253 147.896203,123.020253 147.83038,122.622785 C147.896203,122.622785 147.962025,122.622785 148.032911,122.551899 L148.43038,124.551899 L148.632911,124.551899 C148.364557,124.088608 149.23038,123.686076 148.498734,123.15443 C148.432911,123.086076 148.564557,122.686076 148.564557,122.486076 C148.362025,122.088608 148.235443,121.688608 148.032911,121.15443 C148.098734,121.088608 148.298734,121.020253 148.498734,120.951899 C148.232911,120.820253 148.032911,120.688608 147.832911,120.622785 C148.498734,120.020253 148.498734,119.686076 147.898734,119.020253 C148.035443,118.956962 148.167089,118.956962 148.167089,118.893671 C148.167089,118.291139 148.167089,117.691139 148.035443,117.096203 C147.901266,116.422785 148.237975,115.627848 147.235443,115.222785 C147.297075,115.412251 147.386672,115.591445 147.501266,115.75443 C147.501266,115.75443 147.298734,115.822785 147.101266,115.956962 C146.235443,115.15443 146.772152,114.083544 146.56962,112.886076 C147.035443,113.020253 147.36962,113.15443 147.701266,113.291139 C147.567089,112.820253 147.235443,112.286076 147.035443,111.686076 L146.764557,111.686076 L146.764557,107.281013 C146.764557,107.349367 147.23038,107.349367 147.498734,107.417722 C147.498734,107.349367 147.562025,107.283544 147.562025,107.21519 C147.359494,106.949367 147.093671,106.683544 146.827848,106.349367 L146.962025,106.21519 C146.43038,105.551899 146.696203,104.620253 146.696203,104.417722 L146.696203,99.7468354 C147.364557,100.41519 146.367089,101.281013 147.364557,101.681013 L147.364557,101.01519 L147.296203,101.01519 C147.23038,100.01519 147.23038,99.0151899 147.164557,98.0126582 L147.032911,98.0126582 C146.964557,98.1493671 146.964557,98.2151899 146.896203,98.3493671 L146.764557,98.3493671 L147.164557,82.4050633 C147.83038,83.2708861 148.562025,84.0759494 149.027848,84.9367089 C150.562025,87.7417722 152.559494,90.1443038 154.425316,92.678481 C156.025316,94.8810127 157.488608,97.2810127 158.956962,99.5493671 C160.75443,102.283544 162.486076,105.017722 164.286076,107.751899 C165.62474,109.823685 167.000489,111.871272 168.412658,113.893671 C169.678481,115.691139 171.01519,117.427848 172.346835,119.164557 C173.475949,120.698734 174.675949,122.232911 175.807595,123.767089 C177.141772,125.635443 178.473418,127.501266 179.807595,129.303797 C180.470886,130.235443 181.205063,131.16962 181.934177,132.103797 C182.339241,132.635443 182.936709,133.040506 183.336709,133.36962 C183.273418,133.36962 183.205063,133.36962 183.073418,133.303797 C183.275949,133.56962 183.402532,133.76962 183.539241,133.903797 C184.273418,134.303797 184.339241,134.703797 183.939241,135.306329 L183.944304,135.291139 Z M187.341772,118.617722 L187.341772,118.149367 C187.341772,118.281013 187.407595,118.478481 187.341772,118.61519 L187.341772,118.617722 Z M189.607595,89.2 C189.539241,89.2 189.141772,88.7949367 189.075949,88.7291139 C189.007595,88.9316456 189.075949,89.1291139 188.941772,89.3974684 C188.873418,89.2 188.410127,89.2658228 188.410127,89.0683544 C188.341772,90 188.807595,90.9341772 188.739241,91.8683544 C188.941772,91.7341772 189.739241,91.6658228 189.939241,91.4683544 C190.007595,91.5341772 190.141772,91.6 190.207595,91.6 C188.873418,92.6025316 189.207595,93.6 189.807595,94.7392405 C189.939241,95.0025316 190.339241,95.5367089 189.939241,96.0708861 C189.807595,96.2050633 190.007595,96.6025316 190.073418,96.9392405 L190.268354,96.9392405 L190.268354,97.0658228 L189.668354,97.2683544 C189.536709,97.0658228 188.739241,96.6708861 188.739241,96.3316456 L188.739241,99.7392405 C189.405063,99.9417722 189.405063,100.873418 189.670886,101.341772 C189.787998,101.17955 189.879369,101.000224 189.941772,100.810127 L190.010127,100.870886 C189.941772,101.270886 189.875949,101.670886 189.741772,102.073418 C189.610127,102.670886 189.475949,103.205063 189.412658,103.805063 C189.412658,103.870886 189.539241,104.007595 189.539241,104.070886 C188.810127,105.741772 189.210127,107.605063 188.944304,109.336709 C188.741772,110.602532 188.944304,111.944304 188.810127,113.275949 C188.673418,114.410127 188.405063,115.610127 188.141772,116.744304 C188.073418,116.946835 187.939241,117.010127 187.610127,117.144304 C187.741772,116.344304 187.675949,115.810127 187.541772,115.075949 C187.470886,115.075949 186.605063,114.610127 186.536709,114.610127 C186.536709,115.546835 187.068354,116.812658 187.270886,117.875949 C187.068354,117.810127 186.270886,117.344304 186.207595,117.344304 C186.070886,118.144304 186.070886,119.212658 186.005063,120.078481 C185.936709,120.746835 185.339241,121.344304 185.270886,122.078481 C185.270886,122.483544 185.736709,122.746835 185.670886,123.41519 L186.202532,123.41519 C186.202532,122.083544 186.805063,120.883544 186.805063,119.481013 L187.002532,119.481013 C187.070886,119.61519 187.270886,119.749367 187.205063,119.81519 C187.070886,120.549367 186.8,121.349367 186.870886,122.083544 C186.870886,122.483544 187.2,122.883544 187.073418,123.349367 C186.936709,123.75443 186.870886,124.151899 186.802532,124.751899 C186.734177,124.417722 186.668354,124.286076 186.668354,124.086076 C186.602532,124.086076 186.002532,124.017722 185.934177,124.017722 C185.868354,124.417722 186.402532,124.817722 186.334177,125.151899 C186.268354,125.217722 186.202532,125.217722 186.068354,125.286076 L183.870886,122.081013 C182.134177,119.549367 180.402532,117.010127 178.670886,114.410127 C178.221833,113.77366 177.819917,113.105211 177.468354,112.410127 C175.40706,108.860451 173.115224,105.449759 170.607595,102.2 C168.678481,99.7341772 167.139241,97.0607595 165.341772,94.4658228 C163.681013,91.9974684 162.01519,89.5949367 160.349367,87.1240506 C159.749367,86.3265823 159.017722,85.5924051 158.483544,84.7240506 C156.75443,81.9898734 155.217722,79.1873418 153.491139,76.4531646 C152.022785,74.1822785 150.427848,71.9797468 148.893671,69.7797468 C148.362025,69.0455696 147.83038,68.243038 147.293671,67.443038 C147.210581,67.3034637 147.165215,67.1446814 147.162025,66.9822785 C147.027848,65.5139241 146.893671,64.0455696 146.827848,62.6455696 C146.827848,61.3113924 146.962025,59.9772152 146.962025,58.5746835 L146.962025,57.3746835 C146.962025,57.0405063 147.025316,56.7746835 147.025316,56.4379747 C147.088608,56.3746835 147.156962,56.2405063 147.222785,56.1746835 C145.291139,56.1746835 143.291139,56.1037975 141.359494,56.1746835 C140.093671,56.2379747 139.427848,55.7037975 138.562025,54.7696203 C136.03038,51.9012658 134.164557,48.6329114 131.967089,45.564557 C129.895242,42.6451452 127.785358,39.7529155 125.637975,36.8886076 C123.903797,34.5544304 122.16962,32.2860759 120.440506,29.9518987 C118.506329,27.2835443 116.643038,24.6151899 114.643038,21.9468354 C112.243038,18.7468354 109.777215,15.5417722 107.313924,12.3417722 C106.174684,10.8734177 104.908861,9.47341772 103.643038,7.93670886 C104.511392,8.07341772 105.313924,8.20506329 106.111392,8.27341772 L109.311392,8.47594937 C111.708861,8.67088608 114.106329,8.80506329 116.501266,9.13417722 C118.501266,9.40506329 120.501266,9.80506329 122.567089,10.1367089 C126.967089,10.8708861 131.296203,12.0734177 135.493671,13.4734177 C137.959494,14.2734177 140.35443,15.3417722 142.759494,16.3417722 C148.151899,18.5443038 153.283544,21.2126582 158.346835,24.0126582 C159.941772,24.8810127 160.878481,26.2810127 162.073418,27.5493671 C163.807595,29.3518987 165.541772,31.1518987 167.205063,33.0177215 C169.134177,35.2202532 170.931646,37.4886076 172.8,39.756962 C174.463291,41.756962 176.192405,43.756962 177.863291,45.7620253 C178.394937,46.3620253 178.8,47.0962025 179.260759,47.7620253 C180.324051,49.364557 181.526582,50.9012658 182.458228,52.6329114 C183.121519,53.9037975 183.521519,55.3721519 183.987342,56.7721519 C184.650633,58.8405063 185.318987,60.8405063 185.987342,62.9088608 C186.450633,64.443038 186.848101,66.0481013 187.182278,67.643038 C187.450633,68.7139241 187.38481,69.8455696 187.713924,70.9088608 C188.118987,72.3164557 187.713924,73.8455696 188.118987,75.2506329 C188.182278,75.3848101 188.24557,75.5848101 188.316456,75.7189873 C188.582278,75.9822785 188.782278,76.2506329 188.382278,76.6506329 C188.318987,76.7164557 188.318987,76.9797468 188.382278,77.1822785 C188.518987,77.0506329 188.58481,76.9164557 188.718987,76.7164557 C188.718987,76.8506329 188.782278,76.9189873 188.782278,76.9822785 C188.782278,77.2455696 188.713924,77.5139241 188.782278,77.7797468 C188.782278,77.9113924 188.913924,78.1088608 188.979747,78.2455696 C189.113924,78.1088608 189.24557,78.043038 189.511392,77.8405063 C190.111392,80.1113924 190.179747,82.3797468 190.179747,84.7139241 C190.179747,86.9164557 190.577215,89.1189873 189.648101,91.2531646 C189.84557,90.5189873 189.379747,89.8481013 189.579747,89.1822785 L189.607595,89.2 Z" id="Shape"></path>
                <path d="M147.037975,115.144304 C147.101266,115.144304 147.16962,115.212658 147.16962,115.212658 L147.101266,115.136709 C147.101266,115.073418 147.101266,115.073418 147.035443,115.136709 L147.037975,115.144304 Z M157.562025,181.058228 C156.827848,181.589873 156.093671,182.058228 155.162025,182.258228 C155.091139,182.192405 155.091139,182.124051 155.025316,182.055696 C155.759494,181.589873 156.556962,181.124051 157.291139,180.655696 C157.359494,180.782278 157.493671,180.918987 157.559494,181.053165 L157.562025,181.058228 Z M32.6455696,90.6582278 C33.3797468,89.7291139 34.1139241,88.7949367 34.9088608,87.8607595 C34.9721519,87.9265823 35.5037975,88.0632911 35.5721519,88.1265823 C34.8379747,89.0632911 33.8379747,90.3291139 33.1063291,91.3291139 C32.9696203,91.1949367 32.7696203,90.7291139 32.6379747,90.6607595 L32.6455696,90.6582278 Z M13.721519,123.35443 C13.1898734,122.220253 12.6582278,121.017722 12.1265823,119.886076 C12.3119417,119.768627 12.5131305,119.678262 12.7240506,119.617722 C13.4582278,120.681013 13.7873418,121.946835 14.3240506,123.086076 C14.3240506,123.086076 13.7924051,123.351899 13.7240506,123.351899 L13.721519,123.35443 Z M30.7139241,91.3291139 C30.3139241,91.9316456 29.9139241,92.6 29.5139241,93.2025316 C29.4481013,93.1316456 28.7139241,93.4658228 28.6481013,93.4 C29.0481013,92.8 30.0455696,91.7291139 30.4455696,91.1316456 C30.5139241,91.1974684 30.5797468,91.2658228 30.7139241,91.3341772 L30.7139241,91.3291139 Z M150.435443,183.797468 C150.498734,183.797468 150.498734,183.731646 150.567089,183.731646 C151.032911,183.797468 151.564557,183.863291 152.098734,183.863291 C151.227848,184.463291 150.693671,184.394937 150.427848,183.797468 L150.435443,183.797468 Z M30.8405063,94.1316456 C30.9113924,93.9291139 31.043038,93.7316456 31.1772152,93.5316456 C31.3088608,93.5316456 31.5063291,93.4632911 31.5063291,93.4632911 C31.7772152,92.9974684 31.7772152,92.6632911 32.043038,92.2632911 C31.9772152,92.1974684 31.9088608,92.1974684 31.8405063,92.1291139 C31.443038,92.4025316 31.043038,92.7367089 30.643038,93.0025316 C30.7772152,93.1341772 30.7772152,93.2050633 30.7772152,93.3367089 C30.2455696,93.2683544 30.043038,93.5392405 29.7772152,94.2683544 C29.7113924,94.4708861 29.3772152,94.5367089 29.043038,94.8 C28.9772152,94.9367089 28.9113924,95.2708861 28.7772152,95.6025316 L28.8455696,95.6734177 C28.7113924,95.8075949 28.5113924,95.8759494 28.5113924,95.8759494 C28.1113924,96.2734177 27.6455696,96.6101266 27.2455696,97.0075949 C27.1797468,97.2101266 27.1139241,97.4075949 27.1139241,97.6075949 C27.5822785,97.1417722 28.3797468,96.2734177 28.9797468,95.7392405 L29.0481013,95.8075949 C29.3139241,95.4075949 29.5139241,95.0075949 29.7822785,94.6075949 C29.8455696,94.6734177 29.8455696,94.7392405 29.9139241,94.8101266 C29.7113924,95.3417722 29.5139241,95.9392405 29.3139241,96.4734177 C29.1746835,96.5392405 28.9746835,96.6759494 28.9746835,96.6075949 C28.7088608,96.8101266 28.5088608,97.0734177 28.2405063,97.2734177 L27.043038,98.0734177 C26.3772152,98.6734177 25.7113924,99.2050633 24.9772152,99.8075949 C24.5113924,100.541772 24.0455696,101.207595 23.5088608,102.075949 C24.3113924,101.873418 24.5113924,102.210127 24.4455696,102.878481 C25.3772152,103.010127 25.4455696,102.278481 25.7113924,101.744304 C25.7772152,101.607595 25.8455696,101.339241 25.9772152,101.273418 C26.5772152,100.741772 27.243038,100.275949 27.9088608,99.7417722 C28.043038,99.6075949 28.043038,99.3367089 28.043038,99.1392405 C28.043038,99.0734177 27.7063291,99.0734177 27.5063291,99.0050633 C28.1063291,98.3367089 28.9746835,97.2075949 29.5721519,96.4734177 C29.9063291,96.2708861 30.2379747,96.0025316 30.2379747,95.8025316 C30.1721519,95.0683544 30.6379747,94.8708861 31.1746835,94.6025316 C30.9063291,94.4 30.8379747,94.2050633 30.8379747,94.1392405 L30.8405063,94.1316456 Z" id="Shape"></path>
                <path d="M32.1772152,93.3974684 C31.9113924,93.8632911 31.6455696,94.2632911 31.3797468,94.7316456 L30.9797468,94.5291139 C30.7139241,96.0607595 29.7797468,97.3949367 28.8481013,97.6607595 C29.1139241,97.7949367 29.3797468,97.9291139 29.5822785,97.8632911 C29.7797468,97.7949367 29.9113924,97.4582278 30.0455696,97.2607595 L31.843038,94.6582278 L32.4455696,93.6556962 L32.1797468,93.3898734 L32.1772152,93.3974684 Z M9.99493671,122.683544 C10.3291139,122.683544 10.6632911,122.749367 11.0582278,122.749367 C11.0582278,122.483544 11.3949367,122.546835 11.3949367,122.283544 L11.5974684,122.283544 C11.5974684,122.617722 11.6632911,122.883544 11.6632911,123.220253 L10.2658228,123.220253 C10.1974684,123.151899 9.93164557,122.749367 9.99746835,122.683544 L9.99493671,122.683544 Z M9.46329114,119.61519 C9.26075949,119.412658 8.93164557,119.21519 8.93164557,119.01519 C8.86329114,118.751899 9.06329114,118.420253 9.26075949,118.086076 C9.39746835,118.551899 9.46329114,118.951899 9.59493671,119.420253 C9.52658228,119.483544 9.46075949,119.551899 9.46075949,119.617722 L9.46329114,119.61519 Z M11.1291139,115.344304 C11.3949367,116.017722 11.6607595,116.751899 11.9291139,117.420253 C11.7397617,117.482163 11.5606079,117.57174 11.3974684,117.686076 C11.1316456,117.017722 10.7974684,116.283544 10.5316456,115.617722 C10.7116335,115.488952 10.9156781,115.397692 11.1316456,115.349367 L11.1291139,115.344304 Z M159.432911,179.126582 C159.762025,178.994937 160.162025,178.924051 160.698734,178.797468 C160.096203,179.260759 159.63038,179.594937 159.23038,179.994937 C159.162025,179.929114 159.096203,179.860759 159.027848,179.860759 C159.162025,179.594937 159.296203,179.394937 159.432911,179.126582 Z M77.5443038,38.1620253 C77.9417722,37.8936709 78.278481,37.6936709 78.6759494,37.4278481 L78.8075949,37.5594937 C78.4025316,38.0911392 78.0734177,38.6227848 77.6050633,39.2936709 C77.5392405,38.8303797 77.5392405,38.5594937 77.4708861,38.2303797 C77.4050633,38.2303797 77.4708861,38.2303797 77.5392405,38.164557 L77.5443038,38.1620253 Z M97.0632911,71.9164557 C97.6632911,71.6481013 98.2632911,71.3848101 98.9949367,71.0481013 C98.9291139,71.4481013 98.9291139,71.7164557 98.9291139,71.9848101 C98.7141769,71.9069307 98.4890137,71.8608746 98.2607595,71.8481013 C97.8607595,71.9164557 97.1265823,72.4506329 96.7924051,72.5164557 C96.7291139,72.5164557 97.0607595,71.9848101 97.0607595,71.9164557 L97.0632911,71.9164557 Z M147.037975,128.488608 C147.16962,129.15443 148.435443,129.488608 147.16962,130.15443 C147.372152,130.293671 147.567089,130.356962 147.767089,130.493671 C147.751212,130.594332 147.70533,130.68786 147.635443,130.762025 C147.501266,130.825316 147.235443,130.959494 147.103797,130.888608 C147.035443,130.888608 146.901266,130.625316 146.901266,130.491139 C146.901266,129.891139 146.96962,129.291139 147.035443,128.491139 L147.037975,128.488608 Z" id="Shape"></path>
            </g>
        </g>
    </g>
</svg>